<svg version="1.1" id="Layer_1" xmlns="http://www.w3.org/2000/svg" xmlns:xlink="http://www.w3.org/1999/xlink" x="0px" y="0px"
	 viewBox="0 0 1451.3 4333.2" style="enable-background:new 0 0 1451.3 4333.2;" xml:space="preserve">
<style type="text/css">
	.st0{fill:#B2B2B2;}
	.st1{fill:#F2F2F2;}
	.st2{fill:#B2B2B2;stroke:#B2B2B2;stroke-width:36;stroke-miterlimit:10;}
	.st3{fill:#4D4D4D;}
	.st4{fill:none;}
	.st5{fill:#333333;}
	.st6{fill:#FC6760;}
	.st7{font-family:'MyriadPro-Regular';}
	.st8{font-size:75px;}
	.st9{fill:#DBECEE;}
	.st10{font-family:'ArialMT';}
	.st11{font-size:53.2182px;}
</style>
<g>
	<g>
		<path class="st0" d="M1280,4252.5H171.3c-39.4,0-71.7-44-71.7-97.7v-3911c0-53.8,32.3-97.7,71.7-97.7H1280
			c39.4,0,71.7,44,71.7,97.7v3911C1351.7,4208.5,1319.4,4252.5,1280,4252.5z"/>
		<path class="st1" d="M1252.6,4195H198.7c-39.4,0-71.7-44-71.7-97.7V301.3c0-53.8,32.3-97.7,71.7-97.7h1053.9
			c39.4,0,71.7,44,71.7,97.7v3795.9C1324.3,4151,1292,4195,1252.6,4195z"/>
	</g>
	<path class="st0" d="M1236,357.1H226.6c-27.6,0-50.1-21.6-50.1-48v-8.8c0-26.4,22.6-48,50.1-48H1236c27.6,0,50.1,21.6,50.1,48v8.8
		C1286.2,335.5,1263.6,357.1,1236,357.1z"/>
	<g>
		<line class="st2" x1="725.6" y1="347.9" x2="725.6" y2="640.7"/>
	</g>
	<g>
		<ellipse class="st3" cx="1142.2" cy="315.7" rx="93.5" ry="94"/>
		<g>
			<path class="st1" d="M1180.4,386.1c-11.3,6.1-24.1,9.6-37.8,9.6c-20.4,0-38.9-7.7-53.1-20.3l40-51.9c2.7,4.1,7.4,6.9,12.7,6.9
				c5.3,0,10-2.8,12.7-7L1180.4,386.1z"/>
			<path class="st1" d="M1127,315.1c0,1.7,0.3,3.3,0.8,4.8l-65-8.9c1.8-33.3,23.8-61.2,53.8-71.5l24.5,60.4
				C1133.3,300.4,1127,307,1127,315.1z"/>
			<path class="st1" d="M1222.3,315.4c0,4.9-0.4,9.7-1.3,14.4c-0.1,0.7-0.8,1.2-1.5,1.1l-62.1-8.5c-0.9-0.1-1.4-1-1.1-1.9
				c0.6-1.7,1-3.5,1-5.4c0-6.8-4.4-12.5-10.4-14.5c-0.9-0.3-1.2-1.4-0.6-2.2l39.1-50.7l0.2,0c0.4,0.2,0.7,0.5,1.1,0.7
				C1208.2,262.8,1222.3,287.4,1222.3,315.4z"/>
			<path class="st0" d="M1219.4,330.8c0.8,0.1,1.3,0.9,1.2,1.7c-0.3,1.3-0.6,2.7-1,4c-5.6,20.8-19.3,38.2-37.5,48.6h0
				c-0.1,0.1-0.2,0.1-0.3,0.2c-0.7,0.4-1.6,0.1-2-0.7l-24-59.1c-0.4-0.9-1.6-1.2-2.3-0.4c-2.8,3.1-6.8,5.1-11.3,5.1
				c-4.7,0-8.8-2.1-11.6-5.4c-0.6-0.7-1.6-0.7-2.2,0l-38,49.3c-0.5,0.6-1.4,0.7-2,0.2c0,0,0,0,0,0c-15.8-14.7-25.6-35.6-25.6-58.9
				c0-1,0-1.9,0-2.9c0.6-0.5,0.9-0.8,1.6-1.3l61.4,8.5c0.9,0.1,1.7-0.7,1.5-1.6c-0.2-1-0.3-1.9-0.3-3c0-7.5,5.4-13.7,12.4-15
				c0.9-0.2,1.4-1.1,1.1-1.9l-23.3-57.4c-0.3-0.7,0.1-1.6,0.9-1.8c0.3-0.1,0.7-0.2,1-0.3h0c7.4-2.3,15.3-3.5,23.4-3.5
				c15.8,0,30.6,4.6,43,12.7l-0.2,0l-39.1,50.7c-0.6,0.8-0.3,1.9,0.6,2.2c6.1,2,10.4,7.7,10.4,14.5c0,1.9-0.3,3.7-1,5.4
				c-0.3,0.8,0.2,1.8,1.1,1.9L1219.4,330.8z"/>
			<polygon class="st0" points="1187.1,248 1186.6,248.5 1144.9,300.1 1185.3,247.7 1185.6,247.8 			"/>
			<path class="st0" d="M1119.1,238.6c-0.8,0.3-1.6,0.5-2.5,0.8l-0.5-1.2L1119.1,238.6z"/>
			<path class="st4" d="M1182,385.1c-0.6,0.3-1.1,0.6-1.7,0.9"/>
			<path class="st0" d="M1062.9,311c0,0.2,0,0.3,0,0.5l-0.2-0.5L1062.9,311z"/>
			<path class="st0" d="M1089.5,375.3l-0.5,0.6l-0.7-1.6C1088.7,374.6,1089.1,375,1089.5,375.3z"/>
		</g>
	</g>
	<g id="driver">
		<path class="st5" d="M1219.1,664.2h-184.8c-15.1,0-27.4-12.4-27.4-27.4V525.2c0-15.1,12.4-27.4,27.4-27.4h184.8
			c15.1,0,27.4,12.4,27.4,27.4v111.5C1246.5,651.8,1234.1,664.2,1219.1,664.2z"/>
		<path class="st6" d="M1190.1,639.3h-126.9c-18.4,0-33.5-15.1-33.5-33.5V478.5c0-18.4,15.1-33.5,33.5-33.5h126.9
			c18.4,0,33.5,15.1,33.5,33.5v127.3C1223.6,624.2,1208.5,639.3,1190.1,639.3z"/>
		<path class="st5" d="M1189.5,657h-120.8c-4.5,0-8.1-3.6-8.1-8.1v-16.3c0-4.5,3.6-8.1,8.1-8.1h120.8c4.5,0,8.1,3.6,8.1,8.1v16.3
			C1197.6,653.3,1194,657,1189.5,657z"/>
		<text transform="matrix(1 0 0 1 1108.2233 564.0364)" class="st7 st8">D</text>
	</g>
</g>
<path id="Door" class="st5" d="M115,818.8h-3.4c-6.6,0-12-5.4-12-12V355.2c0-6.6,5.4-12,12-12h3.4c6.6,0,12,5.4,12,12v451.6
	C127,813.4,121.6,818.8,115,818.8z"/>
<g>
	<g id="_x33_3">
		<g>
			<path class="st5" d="M1252.6,4146.5h-169.5c-10.7,0-19.5-8.8-19.5-19.5v-100.5c0-10.7,8.8-19.5,19.5-19.5h169.5
				c10.7,0,19.5,8.8,19.5,19.5V4127C1272.1,4137.7,1263.3,4146.5,1252.6,4146.5z"/>
			<path class="st9" d="M1228.4,4125.6h-121.1c-13.1,0-23.8-10.7-23.8-23.8v-115.3c0-13.1,10.7-23.8,23.8-23.8h121.1
				c13.1,0,23.8,10.7,23.8,23.8v115.3C1252.1,4114.9,1241.5,4125.6,1228.4,4125.6z"/>
			<path class="st5" d="M1223.8,4140.4h-107.7c-3.2,0-5.8-2.6-5.8-5.8v-15.7c0-3.2,2.6-5.8,5.8-5.8h107.7c3.2,0,5.8,2.6,5.8,5.8
				v15.7C1229.6,4137.9,1227,4140.4,1223.8,4140.4z"/>
		</g>
		<text transform="matrix(1 0 0 1 1138.7548 4060.426)" class="st10 st11">49</text>
	</g>
	<g id="_x33_2">
		<g>
			<path class="st5" d="M1034.5,4146.5H865c-10.7,0-19.5-8.8-19.5-19.5v-100.5c0-10.7,8.8-19.5,19.5-19.5h169.5
				c10.7,0,19.5,8.8,19.5,19.5V4127C1054,4137.7,1045.2,4146.5,1034.5,4146.5z"/>
			<path class="st9" d="M1010.3,4125.6H889.2c-13.1,0-23.8-10.7-23.8-23.8v-115.3c0-13.1,10.7-23.8,23.8-23.8h121.1
				c13.1,0,23.8,10.7,23.8,23.8v115.3C1034.1,4114.9,1023.4,4125.6,1010.3,4125.6z"/>
			<path class="st5" d="M1005.7,4140.4H898c-3.2,0-5.8-2.6-5.8-5.8v-15.7c0-3.2,2.6-5.8,5.8-5.8h107.7c3.2,0,5.8,2.6,5.8,5.8v15.7
				C1011.5,4137.9,1008.9,4140.4,1005.7,4140.4z"/>
		</g>
		<text transform="matrix(1 0 0 1 920.6693 4060.426)" class="st10 st11">48</text>
	</g>
	<g id="_x33_1">
		<g>
			<path class="st5" d="M817.7,4146.5H648.2c-10.7,0-19.5-8.8-19.5-19.5v-100.5c0-10.7,8.8-19.5,19.5-19.5h169.5
				c10.7,0,19.5,8.8,19.5,19.5V4127C837.2,4137.7,828.4,4146.5,817.7,4146.5z"/>
			<path class="st9" d="M793.5,4125.6H672.4c-13.1,0-23.8-10.7-23.8-23.8v-115.3c0-13.1,10.7-23.8,23.8-23.8h121.1
				c13.1,0,23.8,10.7,23.8,23.8v115.3C817.3,4114.9,806.6,4125.6,793.5,4125.6z"/>
			<path class="st5" d="M788.9,4140.4H681.2c-3.2,0-5.8-2.6-5.8-5.8v-15.7c0-3.2,2.6-5.8,5.8-5.8h107.7c3.2,0,5.8,2.6,5.8,5.8v15.7
				C794.7,4137.9,792.1,4140.4,788.9,4140.4z"/>
		</g>
		<text transform="matrix(1 0 0 1 703.8871 4060.426)" class="st10 st11">47</text>
	</g>
	<g id="_x33_0">
		<g>
			<path class="st5" d="M600.9,4146.5H431.4c-10.7,0-19.5-8.8-19.5-19.5v-100.5c0-10.7,8.8-19.5,19.5-19.5h169.5
				c10.7,0,19.5,8.8,19.5,19.5V4127C620.4,4137.7,611.6,4146.5,600.9,4146.5z"/>
			<path class="st9" d="M576.7,4125.6H455.6c-13.1,0-23.8-10.7-23.8-23.8v-115.3c0-13.1,10.7-23.8,23.8-23.8h121.1
				c13.1,0,23.8,10.7,23.8,23.8v115.3C600.5,4114.9,589.8,4125.6,576.7,4125.6z"/>
			<path class="st5" d="M572.1,4140.4H464.4c-3.2,0-5.8-2.6-5.8-5.8v-15.7c0-3.2,2.6-5.8,5.8-5.8h107.7c3.2,0,5.8,2.6,5.8,5.8v15.7
				C577.9,4137.9,575.3,4140.4,572.1,4140.4z"/>
		</g>
		<text transform="matrix(1 0 0 1 500.8925 4060.426)" class="st10 st11">46</text>
	</g>
	<g id="_x32_9">
		<g>
			<path class="st5" d="M375.5,4146.5H206c-10.7,0-19.5-8.8-19.5-19.5v-100.5c0-10.7,8.8-19.5,19.5-19.5h169.5
				c10.7,0,19.5,8.8,19.5,19.5V4127C395,4137.7,386.2,4146.5,375.5,4146.5z"/>
			<path class="st9" d="M351.3,4125.6H230.2c-13.1,0-23.8-10.7-23.8-23.8v-115.3c0-13.1,10.7-23.8,23.8-23.8h121.1
				c13.1,0,23.8,10.7,23.8,23.8v115.3C375.1,4114.9,364.4,4125.6,351.3,4125.6z"/>
			<path class="st5" d="M346.7,4140.4H239c-3.2,0-5.8-2.6-5.8-5.8v-15.7c0-3.2,2.6-5.8,5.8-5.8h107.7c3.2,0,5.8,2.6,5.8,5.8v15.7
				C352.5,4137.9,349.9,4140.4,346.7,4140.4z"/>
		</g>
		<text transform="matrix(1 0 0 1 256.9077 4060.426)" class="st10 st11">45</text>
	</g>
</g>
<g id="_x32_8">
	<g>
		<path class="st5" d="M1241.4,2697.3h-169.5c-10.7,0-19.5-8.8-19.5-19.5v-100.5c0-10.7,8.8-19.5,19.5-19.5h169.5
			c10.7,0,19.5,8.8,19.5,19.5v100.5C1260.9,2688.5,1252.1,2697.3,1241.4,2697.3z"/>
		<path class="st9" d="M1217.2,2676.4h-121.1c-13.1,0-23.8-10.7-23.8-23.8v-115.3c0-13.1,10.7-23.8,23.8-23.8h121.1
			c13.1,0,23.8,10.7,23.8,23.8v115.3C1241,2665.7,1230.3,2676.4,1217.2,2676.4z"/>
		<path class="st5" d="M1212.6,2691.3h-107.7c-3.2,0-5.8-2.6-5.8-5.8v-15.7c0-3.2,2.6-5.8,5.8-5.8h107.7c3.2,0,5.8,2.6,5.8,5.8v15.7
			C1218.4,2688.7,1215.8,2691.3,1212.6,2691.3z"/>
	</g>
	<text transform="matrix(1 0 0 1 1127.5895 2611.2537)" class="st10 st11">28</text>
</g>
<g id="_x32_7">
	<g>
		<path class="st5" d="M1018.3,2697.3H848.8c-10.7,0-19.5-8.8-19.5-19.5v-100.5c0-10.7,8.8-19.5,19.5-19.5h169.5
			c10.7,0,19.5,8.8,19.5,19.5v100.5C1037.8,2688.5,1029,2697.3,1018.3,2697.3z"/>
		<path class="st9" d="M994.1,2676.4H873c-13.1,0-23.8-10.7-23.8-23.8v-115.3c0-13.1,10.7-23.8,23.8-23.8h121.1
			c13.1,0,23.8,10.7,23.8,23.8v115.3C1017.9,2665.7,1007.2,2676.4,994.1,2676.4z"/>
		<path class="st5" d="M989.5,2691.3H881.8c-3.2,0-5.8-2.6-5.8-5.8v-15.7c0-3.2,2.6-5.8,5.8-5.8h107.7c3.2,0,5.8,2.6,5.8,5.8v15.7
			C995.3,2688.7,992.7,2691.3,989.5,2691.3z"/>
	</g>
	<text transform="matrix(1 0 0 1 904.5042 2611.2537)" class="st10 st11">27</text>
</g>
<g id="_x32_6">
	<g>
		<path class="st5" d="M594.8,2697.3H425.2c-10.7,0-19.5-8.8-19.5-19.5v-100.5c0-10.7,8.8-19.5,19.5-19.5h169.5
			c10.7,0,19.5,8.8,19.5,19.5v100.5C614.2,2688.5,605.5,2697.3,594.8,2697.3z"/>
		<path class="st9" d="M570.6,2676.4H449.4c-13.1,0-23.8-10.7-23.8-23.8v-115.3c0-13.1,10.7-23.8,23.8-23.8h121.1
			c13.1,0,23.8,10.7,23.8,23.8v115.3C594.3,2665.7,583.6,2676.4,570.6,2676.4z"/>
		<path class="st5" d="M566,2691.3H458.2c-3.2,0-5.8-2.6-5.8-5.8v-15.7c0-3.2,2.6-5.8,5.8-5.8H566c3.2,0,5.8,2.6,5.8,5.8v15.7
			C571.7,2688.7,569.2,2691.3,566,2691.3z"/>
	</g>
	<text transform="matrix(1 0 0 1 494.7273 2611.2537)" class="st10 st11">26</text>
</g>
<g id="_x32_5">
	<g>
		<path class="st5" d="M369.4,2697.3H199.8c-10.7,0-19.5-8.8-19.5-19.5v-100.5c0-10.7,8.8-19.5,19.5-19.5h169.5
			c10.7,0,19.5,8.8,19.5,19.5v100.5C388.8,2688.5,380.1,2697.3,369.4,2697.3z"/>
		<path class="st9" d="M345.2,2676.4H224c-13.1,0-23.8-10.7-23.8-23.8v-115.3c0-13.1,10.7-23.8,23.8-23.8h121.1
			c13.1,0,23.8,10.7,23.8,23.8v115.3C368.9,2665.7,358.2,2676.4,345.2,2676.4z"/>
		<path class="st5" d="M340.6,2691.3H232.9c-3.2,0-5.8-2.6-5.8-5.8v-15.7c0-3.2,2.6-5.8,5.8-5.8h107.7c3.2,0,5.8,2.6,5.8,5.8v15.7
			C346.3,2688.7,343.8,2691.3,340.6,2691.3z"/>
	</g>
	<text transform="matrix(1 0 0 1 250.7424 2611.2537)" class="st10 st11">25</text>
</g>
<g id="_x32_8_1_">
	<g>
		<path class="st5" d="M1255.9,2987.1h-169.5c-10.7,0-19.5-8.8-19.5-19.5v-100.5c0-10.7,8.8-19.5,19.5-19.5h169.5
			c10.7,0,19.5,8.8,19.5,19.5v100.5C1275.3,2978.3,1266.6,2987.1,1255.9,2987.1z"/>
		<path class="st9" d="M1231.7,2966.3h-121.1c-13.1,0-23.8-10.7-23.8-23.8v-115.3c0-13.1,10.7-23.8,23.8-23.8h121.1
			c13.1,0,23.8,10.7,23.8,23.8v115.3C1255.4,2955.6,1244.7,2966.3,1231.7,2966.3z"/>
		<path class="st5" d="M1227.1,2981.1h-107.7c-3.2,0-5.8-2.6-5.8-5.8v-15.7c0-3.2,2.6-5.8,5.8-5.8h107.7c3.2,0,5.8,2.6,5.8,5.8v15.7
			C1232.8,2978.5,1230.3,2981.1,1227.1,2981.1z"/>
	</g>
	<text transform="matrix(1 0 0 1 1142.0282 2901.0879)" class="st10 st11">32</text>
</g>
<g id="_x32_7_1_">
	<g>
		<path class="st5" d="M1032.8,2987.1H863.2c-10.7,0-19.5-8.8-19.5-19.5v-100.5c0-10.7,8.8-19.5,19.5-19.5h169.5
			c10.7,0,19.5,8.8,19.5,19.5v100.5C1052.2,2978.3,1043.5,2987.1,1032.8,2987.1z"/>
		<path class="st9" d="M1008.6,2966.3H887.4c-13.1,0-23.8-10.7-23.8-23.8v-115.3c0-13.1,10.7-23.8,23.8-23.8h121.1
			c13.1,0,23.8,10.7,23.8,23.8v115.3C1032.3,2955.6,1021.6,2966.3,1008.6,2966.3z"/>
		<path class="st5" d="M1004,2981.1H896.3c-3.2,0-5.8-2.6-5.8-5.8v-15.7c0-3.2,2.6-5.8,5.8-5.8H1004c3.2,0,5.8,2.6,5.8,5.8v15.7
			C1009.8,2978.5,1007.2,2981.1,1004,2981.1z"/>
	</g>
	<text transform="matrix(1 0 0 1 918.9428 2901.0879)" class="st10 st11">31</text>
</g>
<g id="_x32_6_1_">
	<g>
		<path class="st5" d="M609.2,2987.1H439.7c-10.7,0-19.5-8.8-19.5-19.5v-100.5c0-10.7,8.8-19.5,19.5-19.5h169.5
			c10.7,0,19.5,8.8,19.5,19.5v100.5C628.7,2978.3,619.9,2987.1,609.2,2987.1z"/>
		<path class="st9" d="M585,2966.3H463.9c-13.1,0-23.8-10.7-23.8-23.8v-115.3c0-13.1,10.7-23.8,23.8-23.8H585
			c13.1,0,23.8,10.7,23.8,23.8v115.3C608.8,2955.6,598.1,2966.3,585,2966.3z"/>
		<path class="st5" d="M580.4,2981.1H472.7c-3.2,0-5.8-2.6-5.8-5.8v-15.7c0-3.2,2.6-5.8,5.8-5.8h107.7c3.2,0,5.8,2.6,5.8,5.8v15.7
			C586.2,2978.5,583.6,2981.1,580.4,2981.1z"/>
	</g>
	<text transform="matrix(1 0 0 1 509.166 2901.0879)" class="st10 st11">30</text>
</g>
<g id="_x32_5_1_">
	<g>
		<path class="st5" d="M383.8,2987.1H214.3c-10.7,0-19.5-8.8-19.5-19.5v-100.5c0-10.7,8.8-19.5,19.5-19.5h169.5
			c10.7,0,19.5,8.8,19.5,19.5v100.5C403.3,2978.3,394.5,2987.1,383.8,2987.1z"/>
		<path class="st9" d="M359.6,2966.3H238.5c-13.1,0-23.8-10.7-23.8-23.8v-115.3c0-13.1,10.7-23.8,23.8-23.8h121.1
			c13.1,0,23.8,10.7,23.8,23.8v115.3C383.4,2955.6,372.7,2966.3,359.6,2966.3z"/>
		<path class="st5" d="M355,2981.1H247.3c-3.2,0-5.8-2.6-5.8-5.8v-15.7c0-3.2,2.6-5.8,5.8-5.8H355c3.2,0,5.8,2.6,5.8,5.8v15.7
			C360.8,2978.5,358.2,2981.1,355,2981.1z"/>
	</g>
	<text transform="matrix(1 0 0 1 265.1811 2901.0879)" class="st10 st11">29</text>
</g>
<g id="_x32_8_2_">
	<g>
		<path class="st5" d="M1253.7,3276.9h-169.5c-10.7,0-19.5-8.8-19.5-19.5V3157c0-10.7,8.8-19.5,19.5-19.5h169.5
			c10.7,0,19.5,8.8,19.5,19.5v100.5C1273.2,3268.2,1264.5,3276.9,1253.7,3276.9z"/>
		<path class="st9" d="M1229.5,3256.1h-121.1c-13.1,0-23.8-10.7-23.8-23.8V3117c0-13.1,10.7-23.8,23.8-23.8h121.1
			c13.1,0,23.8,10.7,23.8,23.8v115.3C1253.3,3245.4,1242.6,3256.1,1229.5,3256.1z"/>
		<path class="st5" d="M1225,3270.9h-107.7c-3.2,0-5.8-2.6-5.8-5.8v-15.7c0-3.2,2.6-5.8,5.8-5.8H1225c3.2,0,5.8,2.6,5.8,5.8v15.7
			C1230.7,3268.4,1228.1,3270.9,1225,3270.9z"/>
	</g>
	<text transform="matrix(1 0 0 1 1139.9158 3190.9224)" class="st10 st11">36</text>
</g>
<g id="_x32_7_2_">
	<g>
		<path class="st5" d="M1030.7,3276.9H861.1c-10.7,0-19.5-8.8-19.5-19.5V3157c0-10.7,8.8-19.5,19.5-19.5h169.5
			c10.7,0,19.5,8.8,19.5,19.5v100.5C1050.1,3268.2,1041.4,3276.9,1030.7,3276.9z"/>
		<path class="st9" d="M1006.5,3256.1H885.3c-13.1,0-23.8-10.7-23.8-23.8V3117c0-13.1,10.7-23.8,23.8-23.8h121.1
			c13.1,0,23.8,10.7,23.8,23.8v115.3C1030.2,3245.4,1019.5,3256.1,1006.5,3256.1z"/>
		<path class="st5" d="M1001.9,3270.9H894.1c-3.2,0-5.8-2.6-5.8-5.8v-15.7c0-3.2,2.6-5.8,5.8-5.8h107.7c3.2,0,5.8,2.6,5.8,5.8v15.7
			C1007.6,3268.4,1005.1,3270.9,1001.9,3270.9z"/>
	</g>
	<text transform="matrix(1 0 0 1 916.8304 3190.9224)" class="st10 st11">35</text>
</g>
<g id="_x32_6_2_">
	<g>
		<path class="st5" d="M607.1,3276.9H437.6c-10.7,0-19.5-8.8-19.5-19.5V3157c0-10.7,8.8-19.5,19.5-19.5h169.5
			c10.7,0,19.5,8.8,19.5,19.5v100.5C626.6,3268.2,617.8,3276.9,607.1,3276.9z"/>
		<path class="st9" d="M582.9,3256.1H461.8c-13.1,0-23.8-10.7-23.8-23.8V3117c0-13.1,10.7-23.8,23.8-23.8h121.1
			c13.1,0,23.8,10.7,23.8,23.8v115.3C606.7,3245.4,596,3256.1,582.9,3256.1z"/>
		<path class="st5" d="M578.3,3270.9H470.6c-3.2,0-5.8-2.6-5.8-5.8v-15.7c0-3.2,2.6-5.8,5.8-5.8h107.7c3.2,0,5.8,2.6,5.8,5.8v15.7
			C584.1,3268.4,581.5,3270.9,578.3,3270.9z"/>
	</g>
	<text transform="matrix(1 0 0 1 507.0536 3190.9224)" class="st10 st11">34</text>
</g>
<g id="_x32_5_2_">
	<g>
		<path class="st5" d="M381.7,3276.9H212.2c-10.7,0-19.5-8.8-19.5-19.5V3157c0-10.7,8.8-19.5,19.5-19.5h169.5
			c10.7,0,19.5,8.8,19.5,19.5v100.5C401.2,3268.2,392.4,3276.9,381.7,3276.9z"/>
		<path class="st9" d="M357.5,3256.1H236.4c-13.1,0-23.8-10.7-23.8-23.8V3117c0-13.1,10.7-23.8,23.8-23.8h121.1
			c13.1,0,23.8,10.7,23.8,23.8v115.3C381.3,3245.4,370.6,3256.1,357.5,3256.1z"/>
		<path class="st5" d="M352.9,3270.9H245.2c-3.2,0-5.8-2.6-5.8-5.8v-15.7c0-3.2,2.6-5.8,5.8-5.8h107.7c3.2,0,5.8,2.6,5.8,5.8v15.7
			C358.7,3268.4,356.1,3270.9,352.9,3270.9z"/>
	</g>
	<text transform="matrix(1 0 0 1 263.0688 3190.9224)" class="st10 st11">33</text>
</g>
<g id="_x32_8_3_">
	<g>
		<path class="st5" d="M1246.4,3566.8h-169.5c-10.7,0-19.5-8.8-19.5-19.5v-100.5c0-10.7,8.8-19.5,19.5-19.5h169.5
			c10.7,0,19.5,8.8,19.5,19.5v100.5C1265.9,3558,1257.1,3566.8,1246.4,3566.8z"/>
		<path class="st9" d="M1222.2,3545.9h-121.1c-13.1,0-23.8-10.7-23.8-23.8v-115.3c0-13.1,10.7-23.8,23.8-23.8h121.1
			c13.1,0,23.8,10.7,23.8,23.8v115.3C1246,3535.3,1235.3,3545.9,1222.2,3545.9z"/>
		<path class="st5" d="M1217.6,3560.8h-107.7c-3.2,0-5.8-2.6-5.8-5.8v-15.7c0-3.2,2.6-5.8,5.8-5.8h107.7c3.2,0,5.8,2.6,5.8,5.8v15.7
			C1223.4,3558.2,1220.8,3560.8,1217.6,3560.8z"/>
	</g>
	<text transform="matrix(1 0 0 1 1132.5895 3480.7566)" class="st10 st11">40</text>
</g>
<g id="_x32_7_3_">
	<g>
		<path class="st5" d="M1023.3,3566.8H853.8c-10.7,0-19.5-8.8-19.5-19.5v-100.5c0-10.7,8.8-19.5,19.5-19.5h169.5
			c10.7,0,19.5,8.8,19.5,19.5v100.5C1042.8,3558,1034,3566.8,1023.3,3566.8z"/>
		<path class="st9" d="M999.1,3545.9H878c-13.1,0-23.8-10.7-23.8-23.8v-115.3c0-13.1,10.7-23.8,23.8-23.8h121.1
			c13.1,0,23.8,10.7,23.8,23.8v115.3C1022.9,3535.3,1012.2,3545.9,999.1,3545.9z"/>
		<path class="st5" d="M994.5,3560.8H886.8c-3.2,0-5.8-2.6-5.8-5.8v-15.7c0-3.2,2.6-5.8,5.8-5.8h107.7c3.2,0,5.8,2.6,5.8,5.8v15.7
			C1000.3,3558.2,997.7,3560.8,994.5,3560.8z"/>
	</g>
	<text transform="matrix(1 0 0 1 909.5042 3480.7566)" class="st10 st11">39</text>
</g>
<g id="_x32_6_3_">
	<g>
		<path class="st5" d="M599.8,3566.8H430.2c-10.7,0-19.5-8.8-19.5-19.5v-100.5c0-10.7,8.8-19.5,19.5-19.5h169.5
			c10.7,0,19.5,8.8,19.5,19.5v100.5C619.2,3558,610.5,3566.8,599.8,3566.8z"/>
		<path class="st9" d="M575.6,3545.9H454.4c-13.1,0-23.8-10.7-23.8-23.8v-115.3c0-13.1,10.7-23.8,23.8-23.8h121.1
			c13.1,0,23.8,10.7,23.8,23.8v115.3C599.3,3535.3,588.6,3545.9,575.6,3545.9z"/>
		<path class="st5" d="M571,3560.8H463.2c-3.2,0-5.8-2.6-5.8-5.8v-15.7c0-3.2,2.6-5.8,5.8-5.8H571c3.2,0,5.8,2.6,5.8,5.8v15.7
			C576.7,3558.2,574.2,3560.8,571,3560.8z"/>
	</g>
	<text transform="matrix(1 0 0 1 499.7273 3480.7566)" class="st10 st11">38</text>
</g>
<g id="_x32_5_3_">
	<g>
		<path class="st5" d="M374.4,3566.8H204.8c-10.7,0-19.5-8.8-19.5-19.5v-100.5c0-10.7,8.8-19.5,19.5-19.5h169.5
			c10.7,0,19.5,8.8,19.5,19.5v100.5C393.8,3558,385.1,3566.8,374.4,3566.8z"/>
		<path class="st9" d="M350.2,3545.9H229c-13.1,0-23.8-10.7-23.8-23.8v-115.3c0-13.1,10.7-23.8,23.8-23.8h121.1
			c13.1,0,23.8,10.7,23.8,23.8v115.3C373.9,3535.3,363.2,3545.9,350.2,3545.9z"/>
		<path class="st5" d="M345.6,3560.8H237.9c-3.2,0-5.8-2.6-5.8-5.8v-15.7c0-3.2,2.6-5.8,5.8-5.8h107.7c3.2,0,5.8,2.6,5.8,5.8v15.7
			C351.3,3558.2,348.8,3560.8,345.6,3560.8z"/>
	</g>
	<text transform="matrix(1 0 0 1 255.7424 3480.7566)" class="st10 st11">37</text>
</g>
<g id="_x32_8_4_">
	<g>
		<path class="st5" d="M1252.2,3856.6h-169.5c-10.7,0-19.5-8.8-19.5-19.5v-100.5c0-10.7,8.8-19.5,19.5-19.5h169.5
			c10.7,0,19.5,8.8,19.5,19.5v100.5C1271.7,3847.8,1262.9,3856.6,1252.2,3856.6z"/>
		<path class="st9" d="M1228,3835.8h-121.1c-13.1,0-23.8-10.7-23.8-23.8v-115.3c0-13.1,10.7-23.8,23.8-23.8H1228
			c13.1,0,23.8,10.7,23.8,23.8V3812C1251.8,3825.1,1241.1,3835.8,1228,3835.8z"/>
		<path class="st5" d="M1223.4,3850.6h-107.7c-3.2,0-5.8-2.6-5.8-5.8v-15.7c0-3.2,2.6-5.8,5.8-5.8h107.7c3.2,0,5.8,2.6,5.8,5.8v15.7
			C1229.2,3848,1226.6,3850.6,1223.4,3850.6z"/>
	</g>
	<text transform="matrix(1 0 0 1 1138.363 3770.5911)" class="st10 st11">44</text>
</g>
<g id="_x32_7_4_">
	<g>
		<path class="st5" d="M1029.1,3856.6H859.6c-10.7,0-19.5-8.8-19.5-19.5v-100.5c0-10.7,8.8-19.5,19.5-19.5h169.5
			c10.7,0,19.5,8.8,19.5,19.5v100.5C1048.6,3847.8,1039.8,3856.6,1029.1,3856.6z"/>
		<path class="st9" d="M1004.9,3835.8H883.8c-13.1,0-23.8-10.7-23.8-23.8v-115.3c0-13.1,10.7-23.8,23.8-23.8h121.1
			c13.1,0,23.8,10.7,23.8,23.8V3812C1028.7,3825.1,1018,3835.8,1004.9,3835.8z"/>
		<path class="st5" d="M1000.3,3850.6H892.6c-3.2,0-5.8-2.6-5.8-5.8v-15.7c0-3.2,2.6-5.8,5.8-5.8h107.7c3.2,0,5.8,2.6,5.8,5.8v15.7
			C1006.1,3848,1003.5,3850.6,1000.3,3850.6z"/>
	</g>
	<text transform="matrix(1 0 0 1 915.2776 3770.5911)" class="st10 st11">43</text>
</g>
<g id="_x32_6_4_">
	<g>
		<path class="st5" d="M605.5,3856.6H436c-10.7,0-19.5-8.8-19.5-19.5v-100.5c0-10.7,8.8-19.5,19.5-19.5h169.5
			c10.7,0,19.5,8.8,19.5,19.5v100.5C625,3847.8,616.2,3856.6,605.5,3856.6z"/>
		<path class="st9" d="M581.3,3835.8H460.2c-13.1,0-23.8-10.7-23.8-23.8v-115.3c0-13.1,10.7-23.8,23.8-23.8h121.1
			c13.1,0,23.8,10.7,23.8,23.8V3812C605.1,3825.1,594.4,3835.8,581.3,3835.8z"/>
		<path class="st5" d="M576.7,3850.6H469c-3.2,0-5.8-2.6-5.8-5.8v-15.7c0-3.2,2.6-5.8,5.8-5.8h107.7c3.2,0,5.8,2.6,5.8,5.8v15.7
			C582.5,3848,579.9,3850.6,576.7,3850.6z"/>
	</g>
	<text transform="matrix(1 0 0 1 505.5008 3770.5911)" class="st10 st11">42</text>
</g>
<g id="_x32_5_4_">
	<g>
		<path class="st5" d="M380.1,3856.6H210.6c-10.7,0-19.5-8.8-19.5-19.5v-100.5c0-10.7,8.8-19.5,19.5-19.5h169.5
			c10.7,0,19.5,8.8,19.5,19.5v100.5C399.6,3847.8,390.8,3856.6,380.1,3856.6z"/>
		<path class="st9" d="M355.9,3835.8H234.8c-13.1,0-23.8-10.7-23.8-23.8v-115.3c0-13.1,10.7-23.8,23.8-23.8h121.1
			c13.1,0,23.8,10.7,23.8,23.8V3812C379.7,3825.1,369,3835.8,355.9,3835.8z"/>
		<path class="st5" d="M351.3,3850.6H243.6c-3.2,0-5.8-2.6-5.8-5.8v-15.7c0-3.2,2.6-5.8,5.8-5.8h107.7c3.2,0,5.8,2.6,5.8,5.8v15.7
			C357.1,3848,354.5,3850.6,351.3,3850.6z"/>
	</g>
	<text transform="matrix(1 0 0 1 261.5159 3770.5911)" class="st10 st11">41</text>
</g>
<g id="_x32_4">
	<g>
		<path class="st5" d="M1240.4,2407.4h-169.5c-10.7,0-19.5-8.8-19.5-19.5v-100.5c0-10.7,8.8-19.5,19.5-19.5h169.5
			c10.7,0,19.5,8.8,19.5,19.5V2388C1259.9,2398.7,1251.1,2407.4,1240.4,2407.4z"/>
		<path class="st9" d="M1216.2,2386.6h-121.1c-13.1,0-23.8-10.7-23.8-23.8v-115.3c0-13.1,10.7-23.8,23.8-23.8h121.1
			c13.1,0,23.8,10.7,23.8,23.8v115.3C1240,2375.9,1229.3,2386.6,1216.2,2386.6z"/>
		<path class="st5" d="M1211.6,2401.4h-107.7c-3.2,0-5.8-2.6-5.8-5.8v-15.7c0-3.2,2.6-5.8,5.8-5.8h107.7c3.2,0,5.8,2.6,5.8,5.8v15.7
			C1217.4,2398.8,1214.8,2401.4,1211.6,2401.4z"/>
	</g>
	<text transform="matrix(1 0 0 1 1126.5895 2321.4194)" class="st10 st11">24</text>
</g>
<g id="_x32_3">
	<g>
		<path class="st5" d="M1018.3,2407.4H848.8c-10.7,0-19.5-8.8-19.5-19.5v-100.5c0-10.7,8.8-19.5,19.5-19.5h169.5
			c10.7,0,19.5,8.8,19.5,19.5V2388C1037.8,2398.7,1029,2407.4,1018.3,2407.4z"/>
		<path class="st9" d="M994.1,2386.6H873c-13.1,0-23.8-10.7-23.8-23.8v-115.3c0-13.1,10.7-23.8,23.8-23.8h121.1
			c13.1,0,23.8,10.7,23.8,23.8v115.3C1017.9,2375.9,1007.2,2386.6,994.1,2386.6z"/>
		<path class="st5" d="M989.5,2401.4H881.8c-3.2,0-5.8-2.6-5.8-5.8v-15.7c0-3.2,2.6-5.8,5.8-5.8h107.7c3.2,0,5.8,2.6,5.8,5.8v15.7
			C995.3,2398.8,992.7,2401.4,989.5,2401.4z"/>
	</g>
	<text transform="matrix(1 0 0 1 904.5042 2321.4194)" class="st10 st11">23</text>
</g>
<g id="_x32_2">
	<g>
		<path class="st5" d="M594.8,2407.4H425.2c-10.7,0-19.5-8.8-19.5-19.5v-100.5c0-10.7,8.8-19.5,19.5-19.5h169.5
			c10.7,0,19.5,8.8,19.5,19.5V2388C614.2,2398.7,605.5,2407.4,594.8,2407.4z"/>
		<path class="st9" d="M570.6,2386.6H449.4c-13.1,0-23.8-10.7-23.8-23.8v-115.3c0-13.1,10.7-23.8,23.8-23.8h121.1
			c13.1,0,23.8,10.7,23.8,23.8v115.3C594.3,2375.9,583.6,2386.6,570.6,2386.6z"/>
		<path class="st5" d="M566,2401.4H458.2c-3.2,0-5.8-2.6-5.8-5.8v-15.7c0-3.2,2.6-5.8,5.8-5.8H566c3.2,0,5.8,2.6,5.8,5.8v15.7
			C571.7,2398.8,569.2,2401.4,566,2401.4z"/>
	</g>
	<text transform="matrix(1 0 0 1 494.7273 2321.4194)" class="st10 st11">22</text>
</g>
<g id="_x32_1">
	<g>
		<path class="st5" d="M369.4,2407.4H199.8c-10.7,0-19.5-8.8-19.5-19.5v-100.5c0-10.7,8.8-19.5,19.5-19.5h169.5
			c10.7,0,19.5,8.8,19.5,19.5V2388C388.8,2398.7,380.1,2407.4,369.4,2407.4z"/>
		<path class="st9" d="M345.2,2386.6H224c-13.1,0-23.8-10.7-23.8-23.8v-115.3c0-13.1,10.7-23.8,23.8-23.8h121.1
			c13.1,0,23.8,10.7,23.8,23.8v115.3C368.9,2375.9,358.2,2386.6,345.2,2386.6z"/>
		<path class="st5" d="M340.6,2401.4H232.9c-3.2,0-5.8-2.6-5.8-5.8v-15.7c0-3.2,2.6-5.8,5.8-5.8h107.7c3.2,0,5.8,2.6,5.8,5.8v15.7
			C346.3,2398.8,343.8,2401.4,340.6,2401.4z"/>
	</g>
	<text transform="matrix(1 0 0 1 250.7424 2321.4194)" class="st10 st11">21</text>
</g>
<g id="_x32_0">
	<g>
		<path class="st5" d="M1242.4,2117.6h-169.5c-10.7,0-19.5-8.8-19.5-19.5v-100.5c0-10.7,8.8-19.5,19.5-19.5h169.5
			c10.7,0,19.5,8.8,19.5,19.5v100.5C1261.9,2108.8,1253.1,2117.6,1242.4,2117.6z"/>
		<path class="st9" d="M1218.2,2096.8h-121.1c-13.1,0-23.8-10.7-23.8-23.8v-115.3c0-13.1,10.7-23.8,23.8-23.8h121.1
			c13.1,0,23.8,10.7,23.8,23.8V2073C1242,2086.1,1231.3,2096.8,1218.2,2096.8z"/>
		<path class="st5" d="M1213.6,2111.6h-107.7c-3.2,0-5.8-2.6-5.8-5.8v-15.7c0-3.2,2.6-5.8,5.8-5.8h107.7c3.2,0,5.8,2.6,5.8,5.8v15.7
			C1219.4,2109,1216.8,2111.6,1213.6,2111.6z"/>
	</g>
	<text transform="matrix(1 0 0 1 1128.5895 2031.585)" class="st10 st11">20</text>
</g>
<g id="_x31_9">
	<g>
		<path class="st5" d="M1018.3,2117.6H848.8c-10.7,0-19.5-8.8-19.5-19.5v-100.5c0-10.7,8.8-19.5,19.5-19.5h169.5
			c10.7,0,19.5,8.8,19.5,19.5v100.5C1037.8,2108.8,1029,2117.6,1018.3,2117.6z"/>
		<path class="st9" d="M994.1,2096.8H873c-13.1,0-23.8-10.7-23.8-23.8v-115.3c0-13.1,10.7-23.8,23.8-23.8h121.1
			c13.1,0,23.8,10.7,23.8,23.8V2073C1017.9,2086.1,1007.2,2096.8,994.1,2096.8z"/>
		<path class="st5" d="M989.5,2111.6H881.8c-3.2,0-5.8-2.6-5.8-5.8v-15.7c0-3.2,2.6-5.8,5.8-5.8h107.7c3.2,0,5.8,2.6,5.8,5.8v15.7
			C995.3,2109,992.7,2111.6,989.5,2111.6z"/>
	</g>
	<text transform="matrix(1 0 0 1 904.5042 2031.585)" class="st10 st11">19</text>
</g>
<g id="_x31_8">
	<g>
		<path class="st5" d="M595.8,2117.6H426.2c-10.7,0-19.5-8.8-19.5-19.5v-100.5c0-10.7,8.8-19.5,19.5-19.5h169.5
			c10.7,0,19.5,8.8,19.5,19.5v100.5C615.2,2108.8,606.5,2117.6,595.8,2117.6z"/>
		<path class="st9" d="M571.6,2096.8H450.4c-13.1,0-23.8-10.7-23.8-23.8v-115.3c0-13.1,10.7-23.8,23.8-23.8h121.1
			c13.1,0,23.8,10.7,23.8,23.8V2073C595.3,2086.1,584.6,2096.8,571.6,2096.8z"/>
		<path class="st5" d="M567,2111.6H459.2c-3.2,0-5.8-2.6-5.8-5.8v-15.7c0-3.2,2.6-5.8,5.8-5.8H567c3.2,0,5.8,2.6,5.8,5.8v15.7
			C572.7,2109,570.2,2111.6,567,2111.6z"/>
	</g>
	<text transform="matrix(1 0 0 1 495.7273 2031.585)" class="st10 st11">18</text>
</g>
<g id="_x31_7">
	<g>
		<path class="st5" d="M369.4,2117.6H199.8c-10.7,0-19.5-8.8-19.5-19.5v-100.5c0-10.7,8.8-19.5,19.5-19.5h169.5
			c10.7,0,19.5,8.8,19.5,19.5v100.5C388.8,2108.8,380.1,2117.6,369.4,2117.6z"/>
		<path class="st9" d="M345.2,2096.8H224c-13.1,0-23.8-10.7-23.8-23.8v-115.3c0-13.1,10.7-23.8,23.8-23.8h121.1
			c13.1,0,23.8,10.7,23.8,23.8V2073C368.9,2086.1,358.2,2096.8,345.2,2096.8z"/>
		<path class="st5" d="M340.6,2111.6H232.9c-3.2,0-5.8-2.6-5.8-5.8v-15.7c0-3.2,2.6-5.8,5.8-5.8h107.7c3.2,0,5.8,2.6,5.8,5.8v15.7
			C346.3,2109,343.8,2111.6,340.6,2111.6z"/>
	</g>
	<text transform="matrix(1 0 0 1 250.7424 2031.585)" class="st10 st11">17</text>
</g>
<g id="_x31_6">
	<g>
		<path class="st5" d="M1246.4,1827.8h-169.5c-10.7,0-19.5-8.8-19.5-19.5v-100.5c0-10.7,8.8-19.5,19.5-19.5h169.5
			c10.7,0,19.5,8.8,19.5,19.5v100.5C1265.9,1819,1257.1,1827.8,1246.4,1827.8z"/>
		<path class="st9" d="M1222.2,1806.9h-121.1c-13.1,0-23.8-10.7-23.8-23.8v-115.3c0-13.1,10.7-23.8,23.8-23.8h121.1
			c13.1,0,23.8,10.7,23.8,23.8v115.3C1246,1796.2,1235.3,1806.9,1222.2,1806.9z"/>
		<path class="st5" d="M1217.6,1821.8h-107.7c-3.2,0-5.8-2.6-5.8-5.8v-15.7c0-3.2,2.6-5.8,5.8-5.8h107.7c3.2,0,5.8,2.6,5.8,5.8v15.7
			C1223.4,1819.2,1220.8,1821.8,1217.6,1821.8z"/>
	</g>
	<text transform="matrix(1 0 0 1 1132.5895 1741.7505)" class="st10 st11">16</text>
</g>
<g id="_x31_5">
	<g>
		<path class="st5" d="M1018.3,1827.8H848.8c-10.7,0-19.5-8.8-19.5-19.5v-100.5c0-10.7,8.8-19.5,19.5-19.5h169.5
			c10.7,0,19.5,8.8,19.5,19.5v100.5C1037.8,1819,1029,1827.8,1018.3,1827.8z"/>
		<path class="st9" d="M994.1,1806.9H873c-13.1,0-23.8-10.7-23.8-23.8v-115.3c0-13.1,10.7-23.8,23.8-23.8h121.1
			c13.1,0,23.8,10.7,23.8,23.8v115.3C1017.9,1796.2,1007.2,1806.9,994.1,1806.9z"/>
		<path class="st5" d="M989.5,1821.8H881.8c-3.2,0-5.8-2.6-5.8-5.8v-15.7c0-3.2,2.6-5.8,5.8-5.8h107.7c3.2,0,5.8,2.6,5.8,5.8v15.7
			C995.3,1819.2,992.7,1821.8,989.5,1821.8z"/>
	</g>
	<text transform="matrix(1 0 0 1 904.5042 1741.7505)" class="st10 st11">15</text>
</g>
<g id="_x31_4">
	<g>
		<path class="st5" d="M594.8,1827.8H425.2c-10.7,0-19.5-8.8-19.5-19.5v-100.5c0-10.7,8.8-19.5,19.5-19.5h169.5
			c10.7,0,19.5,8.8,19.5,19.5v100.5C614.2,1819,605.5,1827.8,594.8,1827.8z"/>
		<path class="st9" d="M570.6,1806.9H449.4c-13.1,0-23.8-10.7-23.8-23.8v-115.3c0-13.1,10.7-23.8,23.8-23.8h121.1
			c13.1,0,23.8,10.7,23.8,23.8v115.3C594.3,1796.2,583.6,1806.9,570.6,1806.9z"/>
		<path class="st5" d="M566,1821.8H458.2c-3.2,0-5.8-2.6-5.8-5.8v-15.7c0-3.2,2.6-5.8,5.8-5.8H566c3.2,0,5.8,2.6,5.8,5.8v15.7
			C571.7,1819.2,569.2,1821.8,566,1821.8z"/>
	</g>
	<text transform="matrix(1 0 0 1 494.7273 1741.7505)" class="st10 st11">14</text>
</g>
<g id="_x31_3">
	<g>
		<path class="st5" d="M369.4,1827.8H199.8c-10.7,0-19.5-8.8-19.5-19.5v-100.5c0-10.7,8.8-19.5,19.5-19.5h169.5
			c10.7,0,19.5,8.8,19.5,19.5v100.5C388.8,1819,380.1,1827.8,369.4,1827.8z"/>
		<path class="st9" d="M345.2,1806.9H224c-13.1,0-23.8-10.7-23.8-23.8v-115.3c0-13.1,10.7-23.8,23.8-23.8h121.1
			c13.1,0,23.8,10.7,23.8,23.8v115.3C368.9,1796.2,358.2,1806.9,345.2,1806.9z"/>
		<path class="st5" d="M340.6,1821.8H232.9c-3.2,0-5.8-2.6-5.8-5.8v-15.7c0-3.2,2.6-5.8,5.8-5.8h107.7c3.2,0,5.8,2.6,5.8,5.8v15.7
			C346.3,1819.2,343.8,1821.8,340.6,1821.8z"/>
	</g>
	<text transform="matrix(1 0 0 1 250.7424 1741.7505)" class="st10 st11">13</text>
</g>
<g id="_x31_2">
	<g>
		<path class="st5" d="M1252.1,1537.9h-169.5c-10.7,0-19.5-8.8-19.5-19.5V1418c0-10.7,8.8-19.5,19.5-19.5h169.5
			c10.7,0,19.5,8.8,19.5,19.5v100.5C1271.6,1529.2,1262.8,1537.9,1252.1,1537.9z"/>
		<path class="st9" d="M1227.9,1517.1h-121.1c-13.1,0-23.8-10.7-23.8-23.8V1378c0-13.1,10.7-23.8,23.8-23.8h121.1
			c13.1,0,23.8,10.7,23.8,23.8v115.3C1251.7,1506.4,1241,1517.1,1227.9,1517.1z"/>
		<path class="st5" d="M1223.3,1531.9h-107.7c-3.2,0-5.8-2.6-5.8-5.8v-15.7c0-3.2,2.6-5.8,5.8-5.8h107.7c3.2,0,5.8,2.6,5.8,5.8v15.7
			C1229.1,1529.3,1226.5,1531.9,1223.3,1531.9z"/>
	</g>
	<text transform="matrix(1 0 0 1 1138.2917 1451.9161)" class="st10 st11">12</text>
</g>
<g id="_x31_1">
	<g>
		<path class="st5" d="M1024,1537.9H854.5c-10.7,0-19.5-8.8-19.5-19.5V1418c0-10.7,8.8-19.5,19.5-19.5H1024
			c10.7,0,19.5,8.8,19.5,19.5v100.5C1043.5,1529.2,1034.8,1537.9,1024,1537.9z"/>
		<path class="st9" d="M999.8,1517.1H878.7c-13.1,0-23.8-10.7-23.8-23.8V1378c0-13.1,10.7-23.8,23.8-23.8h121.1
			c13.1,0,23.8,10.7,23.8,23.8v115.3C1023.6,1506.4,1012.9,1517.1,999.8,1517.1z"/>
		<path class="st5" d="M995.2,1531.9H887.5c-3.2,0-5.8-2.6-5.8-5.8v-15.7c0-3.2,2.6-5.8,5.8-5.8h107.7c3.2,0,5.8,2.6,5.8,5.8v15.7
			C1001,1529.3,998.4,1531.9,995.2,1531.9z"/>
	</g>
	<text transform="matrix(1 0 0 1 910.2064 1451.9161)" class="st10 st11">11</text>
</g>
<g id="_x31_0">
	<g>
		<path class="st5" d="M600.5,1537.9H430.9c-10.7,0-19.5-8.8-19.5-19.5V1418c0-10.7,8.8-19.5,19.5-19.5h169.5
			c10.7,0,19.5,8.8,19.5,19.5v100.5C619.9,1529.2,611.2,1537.9,600.5,1537.9z"/>
		<path class="st9" d="M576.3,1517.1H455.1c-13.1,0-23.8-10.7-23.8-23.8V1378c0-13.1,10.7-23.8,23.8-23.8h121.1
			c13.1,0,23.8,10.7,23.8,23.8v115.3C600,1506.4,589.3,1517.1,576.3,1517.1z"/>
		<path class="st5" d="M571.7,1531.9H464c-3.2,0-5.8-2.6-5.8-5.8v-15.7c0-3.2,2.6-5.8,5.8-5.8h107.7c3.2,0,5.8,2.6,5.8,5.8v15.7
			C577.4,1529.3,574.9,1531.9,571.7,1531.9z"/>
	</g>
	<text transform="matrix(1 0 0 1 500.4295 1451.9161)" class="st10 st11">10</text>
</g>
<g id="_x39_">
	<g>
		<path class="st5" d="M372.1,1537.9H202.5c-10.7,0-19.5-8.8-19.5-19.5V1418c0-10.7,8.8-19.5,19.5-19.5h169.5
			c10.7,0,19.5,8.8,19.5,19.5v100.5C391.5,1529.2,382.8,1537.9,372.1,1537.9z"/>
		<path class="st9" d="M347.9,1517.1H226.7c-13.1,0-23.8-10.7-23.8-23.8V1378c0-13.1,10.7-23.8,23.8-23.8h121.1
			c13.1,0,23.8,10.7,23.8,23.8v115.3C371.6,1506.4,360.9,1517.1,347.9,1517.1z"/>
		<path class="st5" d="M343.3,1531.9H235.6c-3.2,0-5.8-2.6-5.8-5.8v-15.7c0-3.2,2.6-5.8,5.8-5.8h107.7c3.2,0,5.8,2.6,5.8,5.8v15.7
			C349,1529.3,346.5,1531.9,343.3,1531.9z"/>
	</g>
	<text transform="matrix(1 0 0 1 253.4447 1451.9161)" class="st10 st11">9</text>
</g>
<g id="_x38_">
	<g>
		<path class="st5" d="M1252.9,1248.1h-169.5c-10.7,0-19.5-8.8-19.5-19.5v-100.5c0-10.7,8.8-19.5,19.5-19.5h169.5
			c10.7,0,19.5,8.8,19.5,19.5v100.5C1272.3,1239.3,1263.6,1248.1,1252.9,1248.1z"/>
		<path class="st9" d="M1228.7,1227.3h-121.1c-13.1,0-23.8-10.7-23.8-23.8v-115.3c0-13.1,10.7-23.8,23.8-23.8h121.1
			c13.1,0,23.8,10.7,23.8,23.8v115.3C1252.4,1216.6,1241.7,1227.3,1228.7,1227.3z"/>
		<path class="st5" d="M1224.1,1242.1h-107.7c-3.2,0-5.8-2.6-5.8-5.8v-15.7c0-3.2,2.6-5.8,5.8-5.8h107.7c3.2,0,5.8,2.6,5.8,5.8v15.7
			C1229.8,1239.5,1227.3,1242.1,1224.1,1242.1z"/>
	</g>
	<text transform="matrix(1 0 0 1 1139.0311 1162.0818)" class="st10 st11">8</text>
</g>
<g id="_x37_">
	<g>
		<path class="st5" d="M1023.8,1248.1H854.3c-10.7,0-19.5-8.8-19.5-19.5v-100.5c0-10.7,8.8-19.5,19.5-19.5h169.5
			c10.7,0,19.5,8.8,19.5,19.5v100.5C1043.3,1239.3,1034.5,1248.1,1023.8,1248.1z"/>
		<path class="st9" d="M999.6,1227.3H878.4c-13.1,0-23.8-10.7-23.8-23.8v-115.3c0-13.1,10.7-23.8,23.8-23.8h121.1
			c13.1,0,23.8,10.7,23.8,23.8v115.3C1023.3,1216.6,1012.6,1227.3,999.6,1227.3z"/>
		<path class="st5" d="M995,1242.1H887.3c-3.2,0-5.8-2.6-5.8-5.8v-15.7c0-3.2,2.6-5.8,5.8-5.8H995c3.2,0,5.8,2.6,5.8,5.8v15.7
			C1000.8,1239.5,998.2,1242.1,995,1242.1z"/>
	</g>
	<text transform="matrix(1 0 0 1 909.9457 1162.0818)" class="st10 st11">7</text>
</g>
<g id="_x36_">
	<g>
		<path class="st5" d="M600.8,1253.9H431.2c-10.7,0-19.5-8.8-19.5-19.5V1134c0-10.7,8.8-19.5,19.5-19.5h169.5
			c10.7,0,19.5,8.8,19.5,19.5v100.5C620.2,1245.1,611.5,1253.9,600.8,1253.9z"/>
		<path class="st9" d="M576.6,1233.1H455.4c-13.1,0-23.8-10.7-23.8-23.8V1094c0-13.1,10.7-23.8,23.8-23.8h121.1
			c13.1,0,23.8,10.7,23.8,23.8v115.3C600.3,1222.4,589.6,1233.1,576.6,1233.1z"/>
		<path class="st5" d="M572,1247.9H464.3c-3.2,0-5.8-2.6-5.8-5.8v-15.7c0-3.2,2.6-5.8,5.8-5.8H572c3.2,0,5.8,2.6,5.8,5.8v15.7
			C577.8,1245.3,575.2,1247.9,572,1247.9z"/>
	</g>
	<text transform="matrix(1 0 0 1 486.9385 1167.8872)" class="st10 st11">6</text>
</g>
<g id="_x35_">
	<g>
		<path class="st5" d="M374.7,1253.9H205.2c-10.7,0-19.5-8.8-19.5-19.5V1134c0-10.7,8.8-19.5,19.5-19.5h169.5
			c10.7,0,19.5,8.8,19.5,19.5v100.5C394.2,1245.1,385.4,1253.9,374.7,1253.9z"/>
		<path class="st9" d="M350.5,1233.1H229.4c-13.1,0-23.8-10.7-23.8-23.8V1094c0-13.1,10.7-23.8,23.8-23.8h121.1
			c13.1,0,23.8,10.7,23.8,23.8v115.3C374.2,1222.4,363.6,1233.1,350.5,1233.1z"/>
		<path class="st5" d="M345.9,1247.9H238.2c-3.2,0-5.8-2.6-5.8-5.8v-15.7c0-3.2,2.6-5.8,5.8-5.8h107.7c3.2,0,5.8,2.6,5.8,5.8v15.7
			C351.7,1245.3,349.1,1247.9,345.9,1247.9z"/>
	</g>
	<text transform="matrix(1 0 0 1 260.8531 1167.8872)" class="st10 st11">5</text>
</g>
<g id="_x34__17_">
	<g>
		<path class="st5" d="M1254,958.3h-169.5c-10.7,0-19.5-8.8-19.5-19.5V838.3c0-10.7,8.8-19.5,19.5-19.5H1254
			c10.7,0,19.5,8.8,19.5,19.5v100.5C1273.5,949.5,1264.7,958.3,1254,958.3z"/>
		<path class="st9" d="M1229.8,937.4h-121.1c-13.1,0-23.8-10.7-23.8-23.8V798.4c0-13.1,10.7-23.8,23.8-23.8h121.1
			c13.1,0,23.8,10.7,23.8,23.8v115.3C1253.6,926.7,1242.9,937.4,1229.8,937.4z"/>
		<path class="st5" d="M1225.2,952.3h-107.7c-3.2,0-5.8-2.6-5.8-5.8v-15.7c0-3.2,2.6-5.8,5.8-5.8h107.7c3.2,0,5.8,2.6,5.8,5.8v15.7
			C1231,949.7,1228.4,952.3,1225.2,952.3z"/>
	</g>
	<text transform="matrix(1 0 0 1 1153.9757 872.2474)" class="st10 st11">4</text>
</g>
<g id="_x33__7_">
	<g>
		<path class="st5" d="M1033.1,962.6H863.5c-10.7,0-19.5-8.8-19.5-19.5V842.6c0-10.7,8.8-19.5,19.5-19.5h169.5
			c10.7,0,19.5,8.8,19.5,19.5v100.5C1052.5,953.8,1043.8,962.6,1033.1,962.6z"/>
		<path class="st9" d="M1008.9,941.7H887.7c-13.1,0-23.8-10.7-23.8-23.8V802.7c0-13.1,10.7-23.8,23.8-23.8h121.1
			c13.1,0,23.8,10.7,23.8,23.8V918C1032.6,931,1021.9,941.7,1008.9,941.7z"/>
		<path class="st5" d="M1004.3,956.5H896.5c-3.2,0-5.8-2.6-5.8-5.8V935c0-3.2,2.6-5.8,5.8-5.8h107.7c3.2,0,5.8,2.6,5.8,5.8v15.7
			C1010,954,1007.5,956.5,1004.3,956.5z"/>
	</g>
	<text transform="matrix(1 0 0 1 914.4371 876.5355)" class="st10 st11">3</text>
</g>
<g id="_x32__7_">
	<g>
		<path class="st5" d="M596.3,969.9H426.8c-10.7,0-19.5-8.8-19.5-19.5V850c0-10.7,8.8-19.5,19.5-19.5h169.5
			c10.7,0,19.5,8.8,19.5,19.5v100.5C615.8,961.1,607,969.9,596.3,969.9z"/>
		<path class="st9" d="M572.1,949H451c-13.1,0-23.8-10.7-23.8-23.8V810c0-13.1,10.7-23.8,23.8-23.8h121.1
			c13.1,0,23.8,10.7,23.8,23.8v115.3C595.9,938.4,585.2,949,572.1,949z"/>
		<path class="st5" d="M567.5,963.9H459.8c-3.2,0-5.8-2.6-5.8-5.8v-15.7c0-3.2,2.6-5.8,5.8-5.8h107.7c3.2,0,5.8,2.6,5.8,5.8v15.7
			C573.3,961.3,570.7,963.9,567.5,963.9z"/>
	</g>
	<text transform="matrix(1 0 0 1 496.2932 883.8582)" class="st10 st11">2</text>
</g>
<g id="_x31_">
	<g>
		<path class="st5" d="M371.5,969.9H201.9c-10.7,0-19.5-8.8-19.5-19.5V850c0-10.7,8.8-19.5,19.5-19.5h169.5
			c10.7,0,19.5,8.8,19.5,19.5v100.5C390.9,961.1,382.2,969.9,371.5,969.9z"/>
		<path class="st9" d="M347.3,949H226.1c-13.1,0-23.8-10.7-23.8-23.8V810c0-13.1,10.7-23.8,23.8-23.8h121.1
			c13.1,0,23.8,10.7,23.8,23.8v115.3C371,938.4,360.3,949,347.3,949z"/>
		<path class="st5" d="M342.7,963.9H235c-3.2,0-5.8-2.6-5.8-5.8v-15.7c0-3.2,2.6-5.8,5.8-5.8h107.7c3.2,0,5.8,2.6,5.8,5.8v15.7
			C348.5,961.3,345.9,963.9,342.7,963.9z"/>
	</g>
	<text transform="matrix(1 0 0 1 252.8507 883.8582)" class="st10 st11">1</text>
</g>
</svg>
