<svg version="1.1" id="Layer_1" xmlns="http://www.w3.org/2000/svg" xmlns:xlink="http://www.w3.org/1999/xlink" x="0px" y="0px"
	 viewBox="0 0 1125 2436" style="enable-background:new 0 0 1125 2436;" xml:space="preserve">
<style type="text/css">
	.st0{fill:#B2B2B2;}
	.st1{fill:#F2F2F2;}
	.st2{fill:none;stroke:#808080;stroke-width:21;stroke-miterlimit:10;}
	.st3{fill:#4D4D4D;}
	.st4{fill:#333333;}
	.st5{fill:#FC6760;}
	.st6{fill:#DBECEE;}
	.st7{font-family:'MyriadPro-Regular';}
	.st8{font-size:85px;}
</style>
<g>
	<g>
		<g>
			<path class="st0" d="M958.49,2289H169.51c-28.06,0-51.01-22.96-51.01-51.01V197.01c0-28.06,22.96-51.01,51.01-51.01h788.97
				c28.06,0,51.01,22.96,51.01,51.01v2040.97C1009.5,2266.04,986.54,2289,958.49,2289z"/>
			<path class="st1" d="M938.99,2258.98H189.01c-28.06,0-51.01-22.96-51.01-51.01V227.04c0-28.06,22.96-51.01,51.01-51.01h749.97
				c28.06,0,51.01,22.96,51.01,51.01v1980.92C990,2236.02,967.04,2258.98,938.99,2258.98z"/>
		</g>
		<path class="st0" d="M916.5,299.85h-705c-19.25,0-35-15.75-35-35v-6.38c0-19.25,15.75-35,35-35h705c19.25,0,35,15.75,35,35v6.38
			C951.5,284.1,935.75,299.85,916.5,299.85z"/>
	</g>
	<g>
		<line class="st2" x1="185" y1="689" x2="944" y2="689"/>
	</g>
	<circle class="st3" cx="844" cy="285" r="80"/>
</g>
<g id="driver">
	<path class="st4" d="M920.21,593H760c-13.08,0-23.79-10.71-23.79-23.79v-96.64c0-13.08,10.71-23.79,23.79-23.79h160.21
		c13.08,0,23.79,10.71,23.79,23.79v96.64C944,582.29,933.29,593,920.21,593z"/>
	<path class="st5" d="M895.14,571.44H785.08c-15.96,0-29.02-13.06-29.02-29.02V432.02c0-15.96,13.06-29.02,29.02-29.02h110.06
		c15.96,0,29.02,13.06,29.02,29.02v110.41C924.15,558.39,911.1,571.44,895.14,571.44z"/>
	<path class="st4" d="M894.6,586.78H789.83c-3.89,0-7.04-3.15-7.04-7.04V565.6c0-3.89,3.15-7.04,7.04-7.04H894.6
		c3.89,0,7.04,3.15,7.04,7.04v14.13C901.64,583.62,898.49,586.78,894.6,586.78z"/>
</g>
<g id="12">
	<g>
		<path class="st4" d="M680.55,2238H469.08c-13.08,0-23.79-10.71-23.79-23.79v-125.65c0-13.08,10.71-23.79,23.79-23.79h211.47
			c13.08,0,23.79,10.71,23.79,23.79v125.65C704.33,2227.29,693.63,2238,680.55,2238z"/>
		<path class="st6" d="M650.57,2212.11H499.05c-15.96,0-29.02-13.06-29.02-29.02v-144.28c0-15.96,13.06-29.02,29.02-29.02h151.53
			c15.96,0,29.02,13.06,29.02,29.02v144.28C679.59,2199.05,666.53,2212.11,650.57,2212.11z"/>
		<path class="st4" d="M644.49,2230.53h-134.1c-3.89,0-7.04-3.15-7.04-7.04v-19.81c0-3.89,3.15-7.04,7.04-7.04h134.1
			c3.89,0,7.04,3.15,7.04,7.04v19.81C651.53,2227.37,648.38,2230.53,644.49,2230.53z"/>
	</g>
	<text transform="matrix(1 0 0 1 542.5732 2150.9302)" class="st7 st8">12</text>
</g>
<g id="11">
	<g>
		<path class="st4" d="M400.47,2238H189c-13.08,0-23.79-10.71-23.79-23.79v-125.65c0-13.08,10.71-23.79,23.79-23.79h211.47
			c13.08,0,23.79,10.71,23.79,23.79v125.65C424.26,2227.29,413.56,2238,400.47,2238z"/>
		<path class="st6" d="M370.5,2212.11H218.97c-15.96,0-29.02-13.06-29.02-29.02v-144.28c0-15.96,13.06-29.02,29.02-29.02H370.5
			c15.96,0,29.02,13.06,29.02,29.02v144.28C399.52,2199.05,386.46,2212.11,370.5,2212.11z"/>
		<path class="st4" d="M364.41,2230.53h-134.1c-3.89,0-7.04-3.15-7.04-7.04v-19.81c0-3.89,3.15-7.04,7.04-7.04h134.1
			c3.89,0,7.04,3.15,7.04,7.04v19.81C371.46,2227.37,368.3,2230.53,364.41,2230.53z"/>
	</g>
	<text transform="matrix(1 0 0 1 260.5732 2150.9302)" class="st7 st8">11</text>
</g>
<g id="10">
	<g>
		<path class="st4" d="M950.21,1802H761.44c-13.08,0-23.79-10.71-23.79-23.79v-110.47c0-13.08,10.71-23.79,23.79-23.79h188.77
			c13.08,0,23.79,10.71,23.79,23.79v110.47C974,1791.29,963.29,1802,950.21,1802z"/>
		<path class="st6" d="M922.41,1778.38H789.24c-15.96,0-29.02-13.06-29.02-29.02V1622.8c0-15.96,13.06-29.02,29.02-29.02h133.17
			c15.96,0,29.02,13.06,29.02,29.02v126.56C951.42,1765.32,938.37,1778.38,922.41,1778.38z"/>
		<path class="st4" d="M918.78,1795.18H797.66c-3.89,0-7.04-3.15-7.04-7.04v-16.84c0-3.89,3.15-7.04,7.04-7.04h121.12
			c3.89,0,7.04,3.15,7.04,7.04v16.84C925.82,1792.03,922.67,1795.18,918.78,1795.18z"/>
	</g>
	<text transform="matrix(1 0 0 1 825.5732 1722.9302)" class="st7 st8">10</text>
</g>
<g id="9">
	<g>
		<path class="st4" d="M692.31,1802H503.54c-13.08,0-23.79-10.71-23.79-23.79v-110.47c0-13.08,10.71-23.79,23.79-23.79h188.77
			c13.08,0,23.79,10.71,23.79,23.79v110.47C716.1,1791.29,705.39,1802,692.31,1802z"/>
		<path class="st6" d="M664.51,1778.38H531.34c-15.96,0-29.02-13.06-29.02-29.02V1622.8c0-15.96,13.06-29.02,29.02-29.02h133.17
			c15.96,0,29.02,13.06,29.02,29.02v126.56C693.52,1765.32,680.47,1778.38,664.51,1778.38z"/>
		<path class="st4" d="M660.88,1795.18H539.76c-3.89,0-7.04-3.15-7.04-7.04v-16.84c0-3.89,3.15-7.04,7.04-7.04h121.12
			c3.89,0,7.04,3.15,7.04,7.04v16.84C667.92,1792.03,664.77,1795.18,660.88,1795.18z"/>
	</g>
	<text transform="matrix(1 0 0 1 571.5732 1722.9302)" class="st7 st8">9</text>
</g>
<g id="8">
	<g>
		<path class="st4" d="M364.78,1802H176c-13.08,0-23.79-10.71-23.79-23.79v-110.47c0-13.08,10.71-23.79,23.79-23.79h188.77
			c13.08,0,23.79,10.71,23.79,23.79v110.47C388.57,1791.29,377.86,1802,364.78,1802z"/>
		<path class="st6" d="M336.97,1778.38H203.81c-15.96,0-29.02-13.06-29.02-29.02V1622.8c0-15.96,13.06-29.02,29.02-29.02h133.17
			c15.96,0,29.02,13.06,29.02,29.02v126.56C365.99,1765.32,352.93,1778.38,336.97,1778.38z"/>
		<path class="st4" d="M333.34,1795.18H212.23c-3.89,0-7.04-3.15-7.04-7.04v-16.84c0-3.89,3.15-7.04,7.04-7.04h121.12
			c3.89,0,7.04,3.15,7.04,7.04v16.84C340.39,1792.03,337.23,1795.18,333.34,1795.18z"/>
	</g>
	<text transform="matrix(1 0 0 1 259.5732 1722.9302)" class="st7 st8">8</text>
</g>
<g id="7">
	<g>
		<path class="st4" d="M948.21,1435H759.44c-13.08,0-23.79-10.71-23.79-23.79v-110.47c0-13.08,10.71-23.79,23.79-23.79h188.77
			c13.08,0,23.79,10.71,23.79,23.79v110.47C972,1424.29,961.29,1435,948.21,1435z"/>
		<path class="st6" d="M920.41,1411.38H787.24c-15.96,0-29.02-13.06-29.02-29.02V1255.8c0-15.96,13.06-29.02,29.02-29.02h133.17
			c15.96,0,29.02,13.06,29.02,29.02v126.56C949.42,1398.32,936.37,1411.38,920.41,1411.38z"/>
		<path class="st4" d="M916.78,1428.18H795.66c-3.89,0-7.04-3.15-7.04-7.04v-16.84c0-3.89,3.15-7.04,7.04-7.04h121.12
			c3.89,0,7.04,3.15,7.04,7.04v16.84C923.82,1425.03,920.67,1428.18,916.78,1428.18z"/>
	</g>
	<text transform="matrix(1 0 0 1 825.5732 1355.9302)" class="st7 st8">7</text>
</g>
<g id="6">
	<g>
		<path class="st4" d="M690.31,1435H501.54c-13.08,0-23.79-10.71-23.79-23.79v-110.47c0-13.08,10.71-23.79,23.79-23.79h188.77
			c13.08,0,23.79,10.71,23.79,23.79v110.47C714.1,1424.29,703.39,1435,690.31,1435z"/>
		<path class="st6" d="M662.51,1411.38H529.34c-15.96,0-29.02-13.06-29.02-29.02V1255.8c0-15.96,13.06-29.02,29.02-29.02h133.17
			c15.96,0,29.02,13.06,29.02,29.02v126.56C691.52,1398.32,678.47,1411.38,662.51,1411.38z"/>
		<path class="st4" d="M658.88,1428.18H537.76c-3.89,0-7.04-3.15-7.04-7.04v-16.84c0-3.89,3.15-7.04,7.04-7.04h121.12
			c3.89,0,7.04,3.15,7.04,7.04v16.84C665.92,1425.03,662.77,1428.18,658.88,1428.18z"/>
	</g>
	<text transform="matrix(1 0 0 1 563.5732 1355.9302)" class="st7 st8">6</text>
</g>
<g id="5">
	<g>
		<path class="st4" d="M364.78,1435H176c-13.08,0-23.79-10.71-23.79-23.79v-110.47c0-13.08,10.71-23.79,23.79-23.79h188.77
			c13.08,0,23.79,10.71,23.79,23.79v110.47C388.57,1424.29,377.86,1435,364.78,1435z"/>
		<path class="st6" d="M336.97,1411.38H203.81c-15.96,0-29.02-13.06-29.02-29.02V1255.8c0-15.96,13.06-29.02,29.02-29.02h133.17
			c15.96,0,29.02,13.06,29.02,29.02v126.56C365.99,1398.32,352.93,1411.38,336.97,1411.38z"/>
		<path class="st4" d="M333.34,1428.18H212.23c-3.89,0-7.04-3.15-7.04-7.04v-16.84c0-3.89,3.15-7.04,7.04-7.04h121.12
			c3.89,0,7.04,3.15,7.04,7.04v16.84C340.39,1425.03,337.23,1428.18,333.34,1428.18z"/>
	</g>
	<text transform="matrix(1 0 0 1 246.5732 1355.9302)" class="st7 st8">5</text>
</g>
<g id="4">
	<g>
		<path class="st4" d="M944.6,1068H737.55c-13.08,0-23.79-10.71-23.79-23.79V921.52c0-13.08,10.71-23.79,23.79-23.79H944.6
			c13.08,0,23.79,10.71,23.79,23.79v122.69C968.39,1057.29,957.69,1068,944.6,1068z"/>
		<path class="st6" d="M915.05,1042.55H767.1c-15.96,0-29.02-13.06-29.02-29.02V872.7c0-15.96,13.06-29.02,29.02-29.02h147.96
			c15.96,0,29.02,13.06,29.02,29.02v140.84C944.07,1029.49,931.01,1042.55,915.05,1042.55z"/>
		<path class="st4" d="M909.44,1060.65H777.87c-3.89,0-7.04-3.15-7.04-7.04v-19.23c0-3.89,3.15-7.04,7.04-7.04h131.57
			c3.89,0,7.04,3.15,7.04,7.04v19.23C916.49,1057.5,913.33,1060.65,909.44,1060.65z"/>
	</g>
	<text transform="matrix(1 0 0 1 805.5732 962.9302)" class="st7 st8">4</text>
</g>
<g id="3">
	<g>
		<path class="st4" d="M666.75,1068H459.7c-13.08,0-23.79-10.71-23.79-23.79V921.52c0-13.08,10.71-23.79,23.79-23.79h207.06
			c13.08,0,23.79,10.71,23.79,23.79v122.69C690.54,1057.29,679.84,1068,666.75,1068z"/>
		<path class="st6" d="M637.2,1042.55H489.25c-15.96,0-29.02-13.06-29.02-29.02V872.7c0-15.96,13.06-29.02,29.02-29.02H637.2
			c15.96,0,29.02,13.06,29.02,29.02v140.84C666.22,1029.49,653.16,1042.55,637.2,1042.55z"/>
		<path class="st4" d="M631.59,1060.65H500.02c-3.89,0-7.04-3.15-7.04-7.04v-19.23c0-3.89,3.15-7.04,7.04-7.04h131.57
			c3.89,0,7.04,3.15,7.04,7.04v19.23C638.64,1057.5,635.48,1060.65,631.59,1060.65z"/>
	</g>
	<text transform="matrix(1 0 0 1 544.5732 962.9302)" class="st7 st8">3</text>
</g>
<g id="2">
	<g>
		<path class="st4" d="M391.45,1068H184.4c-13.08,0-23.79-10.71-23.79-23.79V921.52c0-13.08,10.71-23.79,23.79-23.79h207.06
			c13.08,0,23.79,10.71,23.79,23.79v122.69C415.24,1057.29,404.54,1068,391.45,1068z"/>
		<path class="st6" d="M361.9,1042.55H213.95c-15.96,0-29.02-13.06-29.02-29.02V872.7c0-15.96,13.06-29.02,29.02-29.02H361.9
			c15.96,0,29.02,13.06,29.02,29.02v140.84C390.92,1029.49,377.86,1042.55,361.9,1042.55z"/>
		<path class="st4" d="M356.29,1060.65H224.72c-3.89,0-7.04-3.15-7.04-7.04v-19.23c0-3.89,3.15-7.04,7.04-7.04h131.57
			c3.89,0,7.04,3.15,7.04,7.04v19.23C363.34,1057.5,360.18,1060.65,356.29,1060.65z"/>
	</g>
	<text transform="matrix(1 0 0 1 246.5732 962.9302)" class="st7 st8">2</text>
</g>
<g id="1b">
	<g>
		<path class="st4" d="M575.21,593H423c-13.08,0-23.79-10.71-23.79-23.79v-86.02c0-13.08,10.71-23.79,23.79-23.79h152.21
			c13.08,0,23.79,10.71,23.79,23.79v86.02C599,582.29,588.29,593,575.21,593z"/>
		<path class="st6" d="M550.9,573.03H447.31c-15.96,0-29.02-13.06-29.02-29.02v-98c0-15.96,13.06-29.02,29.02-29.02H550.9
			c15.96,0,29.02,13.06,29.02,29.02v98C579.92,559.98,566.86,573.03,550.9,573.03z"/>
		<path class="st4" d="M551.23,587.24h-100.2c-3.89,0-7.04-3.15-7.04-7.04v-12.06c0-3.89,3.15-7.04,7.04-7.04h100.2
			c3.89,0,7.04,3.15,7.04,7.04v12.06C558.28,584.08,555.12,587.24,551.23,587.24z"/>
	</g>
	<text transform="matrix(1 0 0 1 469.5732 525.9302)" class="st7 st8">1b</text>
</g>
<g id="1">
	<g>
		<path class="st4" d="M359.21,593H207c-13.08,0-23.79-10.71-23.79-23.79v-86.02c0-13.08,10.71-23.79,23.79-23.79h152.21
			c13.08,0,23.79,10.71,23.79,23.79v86.02C383,582.29,372.29,593,359.21,593z"/>
		<path class="st6" d="M334.9,573.03H231.31c-15.96,0-29.02-13.06-29.02-29.02v-98c0-15.96,13.06-29.02,29.02-29.02H334.9
			c15.96,0,29.02,13.06,29.02,29.02v98C363.92,559.98,350.86,573.03,334.9,573.03z"/>
		<path class="st4" d="M335.23,587.24h-100.2c-3.89,0-7.04-3.15-7.04-7.04v-12.06c0-3.89,3.15-7.04,7.04-7.04h100.2
			c3.89,0,7.04,3.15,7.04,7.04v12.06C342.28,584.08,339.12,587.24,335.23,587.24z"/>
	</g>
	<text transform="matrix(1 0 0 1 264.5732 520.9302)" class="st7 st8">1</text>
</g>
<g id="13">
	<g>
		<path class="st4" d="M963.21,2238H751.74c-13.08,0-23.79-10.71-23.79-23.79v-125.65c0-13.08,10.71-23.79,23.79-23.79h211.47
			c13.08,0,23.79,10.71,23.79,23.79v125.65C987,2227.29,976.29,2238,963.21,2238z"/>
		<path class="st6" d="M933.24,2212.11H781.71c-15.96,0-29.02-13.06-29.02-29.02v-144.28c0-15.96,13.06-29.02,29.02-29.02h151.53
			c15.96,0,29.02,13.06,29.02,29.02v144.28C962.26,2199.05,949.2,2212.11,933.24,2212.11z"/>
		<path class="st4" d="M927.15,2230.53h-134.1c-3.89,0-7.04-3.15-7.04-7.04v-19.81c0-3.89,3.15-7.04,7.04-7.04h134.1
			c3.89,0,7.04,3.15,7.04,7.04v19.81C934.2,2227.37,931.04,2230.53,927.15,2230.53z"/>
	</g>
	<text transform="matrix(1 0 0 1 824.5732 2150.9302)" class="st7 st8">13</text>
</g>
</svg>

