<svg version="1.1" id="Layer_1" xmlns="http://www.w3.org/2000/svg" xmlns:xlink="http://www.w3.org/1999/xlink" x="0px" y="0px"
	 viewBox="0 0 1451.3 3228.9" style="enable-background:new 0 0 1451.3 3228.9;" xml:space="preserve">
<style type="text/css">
	.st0{fill:#B2B2B2;}
	.st1{fill:#F2F2F2;}
	.st2{fill:none;stroke:#808080;stroke-width:21;stroke-miterlimit:10;}
	.st3{fill:#4D4D4D;}
	.st4{fill:none;}
	.st5{fill:#333333;}
	.st6{fill:#DBECEE;}
	.st7{font-family:'ArialMT';}
	.st8{font-size:53.2182px;}
	.st9{fill:#FC6760;}
	.st10{font-family:'MyriadPro-Regular';}
	.st11{font-size:75px;}
</style>
<g>
	<g>
		<path class="st0" d="M1280,3138.7H171.3c-39.4,0-71.7-32.1-71.7-71.2V217.2c0-39.2,32.3-71.2,71.7-71.2H1280
			c39.4,0,71.7,32.1,71.7,71.2v2850.2C1351.7,3106.6,1319.4,3138.7,1280,3138.7z"/>
		<path class="st1" d="M1252.6,3096.8H198.7c-39.4,0-71.7-32.1-71.7-71.2V259.2c0-39.2,32.3-71.2,71.7-71.2h1053.9
			c39.4,0,71.7,32.1,71.7,71.2v2766.3C1324.3,3064.7,1292,3096.8,1252.6,3096.8z"/>
	</g>
	<path class="st0" d="M1236,299.9H226.6c-27.6,0-50.1-15.8-50.1-35v-6.4c0-19.3,22.6-35,50.1-35H1236c27.6,0,50.1,15.8,50.1,35v6.4
		C1286.2,284.1,1263.6,299.9,1236,299.9z"/>
	<g>
		<g>
			<line class="st2" x1="167.7" y1="689" x2="1283.5" y2="689"/>
		</g>
		<g>
			<circle class="st3" cx="1142.2" cy="294.6" r="93.5"/>
			<g>
				<path class="st1" d="M1180.4,364.6c-11.3,6.1-24.1,9.5-37.8,9.5c-20.4,0-38.9-7.6-53.1-20.2l40-51.6c2.7,4.1,7.4,6.8,12.7,6.8
					c5.3,0,10-2.8,12.7-6.9L1180.4,364.6z"/>
				<path class="st1" d="M1127,294c0,1.7,0.3,3.3,0.8,4.8l-65-8.9c1.8-33.1,23.8-60.8,53.8-71.1l24.5,60.1
					C1133.3,279.4,1127,286,1127,294z"/>
				<path class="st1" d="M1222.3,294.3c0,4.9-0.4,9.7-1.3,14.3c-0.1,0.7-0.8,1.2-1.5,1.1l-62.1-8.5c-0.9-0.1-1.4-1-1.1-1.9
					c0.6-1.7,1-3.5,1-5.4c0-6.7-4.4-12.4-10.4-14.4c-0.9-0.3-1.2-1.4-0.6-2.1l39.1-50.4l0.2,0c0.4,0.2,0.7,0.5,1.1,0.7
					C1208.2,242.1,1222.3,266.6,1222.3,294.3z"/>
				<path class="st0" d="M1219.4,309.7c0.8,0.1,1.3,0.9,1.2,1.6c-0.3,1.3-0.6,2.6-1,3.9c-5.6,20.7-19.3,38-37.5,48.4h0
					c-0.1,0.1-0.2,0.1-0.3,0.2c-0.7,0.4-1.6,0.1-2-0.7l-24-58.7c-0.4-0.9-1.6-1.2-2.3-0.4c-2.8,3.1-6.8,5.1-11.3,5.1
					c-4.7,0-8.8-2.1-11.6-5.4c-0.6-0.7-1.6-0.7-2.2,0l-38,49c-0.5,0.6-1.4,0.7-2,0.2c0,0,0,0,0,0c-15.8-14.6-25.6-35.4-25.6-58.6
					c0-1,0-1.9,0-2.9c0.6-0.5,0.9-0.8,1.6-1.3l61.4,8.4c0.9,0.1,1.7-0.7,1.5-1.6c-0.2-1-0.3-1.9-0.3-3c0-7.4,5.4-13.6,12.4-14.9
					c0.9-0.2,1.4-1.1,1.1-1.9l-23.3-57.1c-0.3-0.7,0.1-1.6,0.9-1.8c0.3-0.1,0.7-0.2,1-0.3h0c7.4-2.3,15.3-3.5,23.4-3.5
					c15.8,0,30.6,4.6,43,12.6l-0.2,0l-39.1,50.4c-0.6,0.7-0.3,1.8,0.6,2.1c6.1,2,10.4,7.7,10.4,14.4c0,1.9-0.3,3.7-1,5.4
					c-0.3,0.8,0.2,1.7,1.1,1.9L1219.4,309.7z"/>
				<polygon class="st0" points="1187.1,227.3 1186.6,227.8 1144.9,279.1 1185.3,227.1 1185.6,227.1 				"/>
				<path class="st0" d="M1119.1,218c-0.8,0.3-1.6,0.5-2.5,0.8l-0.5-1.2L1119.1,218z"/>
				<path class="st4" d="M1182,363.7c-0.6,0.3-1.1,0.6-1.7,0.9"/>
				<path class="st0" d="M1062.9,289.9c0,0.2,0,0.3,0,0.4l-0.2-0.5L1062.9,289.9z"/>
				<path class="st0" d="M1089.5,353.9l-0.5,0.6l-0.7-1.6C1088.7,353.3,1089.1,353.6,1089.5,353.9z"/>
			</g>
		</g>
		<path id="Door" class="st5" d="M115,1396.3h-3.4c-6.6,0-12-5.4-12-12v-322.6c0-6.6,5.4-12,12-12h3.4c6.6,0,12,5.4,12,12v322.6
			C127,1390.9,121.6,1396.3,115,1396.3z"/>
	</g>
</g>
<g id="_x33_3">
	<g>
		<path class="st5" d="M1261.4,3034.9h-169.5c-10.7,0-19.5-8.8-19.5-19.5V2915c0-10.7,8.8-19.5,19.5-19.5h169.5
			c10.7,0,19.5,8.8,19.5,19.5v100.5C1280.9,3026.1,1272.1,3034.9,1261.4,3034.9z"/>
		<path class="st6" d="M1237.2,3014.1h-121.1c-13.1,0-23.8-10.7-23.8-23.8V2875c0-13.1,10.7-23.8,23.8-23.8h121.1
			c13.1,0,23.8,10.7,23.8,23.8v115.3C1261,3003.4,1250.3,3014.1,1237.2,3014.1z"/>
		<path class="st5" d="M1232.6,3028.9h-107.7c-3.2,0-5.8-2.6-5.8-5.8v-15.7c0-3.2,2.6-5.8,5.8-5.8h107.7c3.2,0,5.8,2.6,5.8,5.8v15.7
			C1238.4,3026.3,1235.8,3028.9,1232.6,3028.9z"/>
	</g>
	<text transform="matrix(1 0 0 1 1147.5895 2948.8936)" class="st7 st8">33</text>
</g>
<g id="_x33_2">
	<g>
		<path class="st5" d="M1018.3,3034.9H848.8c-10.7,0-19.5-8.8-19.5-19.5V2915c0-10.7,8.8-19.5,19.5-19.5h169.5
			c10.7,0,19.5,8.8,19.5,19.5v100.5C1037.8,3026.1,1029,3034.9,1018.3,3034.9z"/>
		<path class="st6" d="M994.1,3014.1H873c-13.1,0-23.8-10.7-23.8-23.8V2875c0-13.1,10.7-23.8,23.8-23.8h121.1
			c13.1,0,23.8,10.7,23.8,23.8v115.3C1017.9,3003.4,1007.2,3014.1,994.1,3014.1z"/>
		<path class="st5" d="M989.5,3028.9H881.8c-3.2,0-5.8-2.6-5.8-5.8v-15.7c0-3.2,2.6-5.8,5.8-5.8h107.7c3.2,0,5.8,2.6,5.8,5.8v15.7
			C995.3,3026.3,992.7,3028.9,989.5,3028.9z"/>
	</g>
	<text transform="matrix(1 0 0 1 904.5042 2948.8936)" class="st7 st8">32</text>
</g>
<g id="_x33_1">
	<g>
		<path class="st5" d="M801.5,3034.9H632c-10.7,0-19.5-8.8-19.5-19.5V2915c0-10.7,8.8-19.5,19.5-19.5h169.5
			c10.7,0,19.5,8.8,19.5,19.5v100.5C821,3026.1,812.3,3034.9,801.5,3034.9z"/>
		<path class="st6" d="M777.4,3014.1H656.2c-13.1,0-23.8-10.7-23.8-23.8V2875c0-13.1,10.7-23.8,23.8-23.8h121.1
			c13.1,0,23.8,10.7,23.8,23.8v115.3C801.1,3003.4,790.4,3014.1,777.4,3014.1z"/>
		<path class="st5" d="M772.8,3028.9H665c-3.2,0-5.8-2.6-5.8-5.8v-15.7c0-3.2,2.6-5.8,5.8-5.8h107.7c3.2,0,5.8,2.6,5.8,5.8v15.7
			C778.5,3026.3,775.9,3028.9,772.8,3028.9z"/>
	</g>
	<text transform="matrix(1 0 0 1 687.7219 2948.8936)" class="st7 st8">31</text>
</g>
<g id="_x33_0">
	<g>
		<path class="st5" d="M584.8,3034.9H415.2c-10.7,0-19.5-8.8-19.5-19.5V2915c0-10.7,8.8-19.5,19.5-19.5h169.5
			c10.7,0,19.5,8.8,19.5,19.5v100.5C604.2,3026.1,595.5,3034.9,584.8,3034.9z"/>
		<path class="st6" d="M560.6,3014.1H439.4c-13.1,0-23.8-10.7-23.8-23.8V2875c0-13.1,10.7-23.8,23.8-23.8h121.1
			c13.1,0,23.8,10.7,23.8,23.8v115.3C584.3,3003.4,573.6,3014.1,560.6,3014.1z"/>
		<path class="st5" d="M556,3028.9H448.2c-3.2,0-5.8-2.6-5.8-5.8v-15.7c0-3.2,2.6-5.8,5.8-5.8H556c3.2,0,5.8,2.6,5.8,5.8v15.7
			C561.7,3026.3,559.2,3028.9,556,3028.9z"/>
	</g>
	<text transform="matrix(1 0 0 1 484.7273 2948.8936)" class="st7 st8">30</text>
</g>
<g id="_x32_9">
	<g>
		<path class="st5" d="M359.4,3034.9H189.8c-10.7,0-19.5-8.8-19.5-19.5V2915c0-10.7,8.8-19.5,19.5-19.5h169.5
			c10.7,0,19.5,8.8,19.5,19.5v100.5C378.8,3026.1,370.1,3034.9,359.4,3034.9z"/>
		<path class="st6" d="M335.2,3014.1H214c-13.1,0-23.8-10.7-23.8-23.8V2875c0-13.1,10.7-23.8,23.8-23.8h121.1
			c13.1,0,23.8,10.7,23.8,23.8v115.3C358.9,3003.4,348.2,3014.1,335.2,3014.1z"/>
		<path class="st5" d="M330.6,3028.9H222.9c-3.2,0-5.8-2.6-5.8-5.8v-15.7c0-3.2,2.6-5.8,5.8-5.8h107.7c3.2,0,5.8,2.6,5.8,5.8v15.7
			C336.3,3026.3,333.8,3028.9,330.6,3028.9z"/>
	</g>
	<text transform="matrix(1 0 0 1 240.7424 2948.8936)" class="st7 st8">29</text>
</g>
<g id="_x32_8">
	<g>
		<path class="st5" d="M1261.4,2739.3h-169.5c-10.7,0-19.5-8.8-19.5-19.5v-100.5c0-10.7,8.8-19.5,19.5-19.5h169.5
			c10.7,0,19.5,8.8,19.5,19.5v100.5C1280.9,2730.5,1272.1,2739.3,1261.4,2739.3z"/>
		<path class="st6" d="M1237.2,2718.4h-121.1c-13.1,0-23.8-10.7-23.8-23.8v-115.3c0-13.1,10.7-23.8,23.8-23.8h121.1
			c13.1,0,23.8,10.7,23.8,23.8v115.3C1261,2707.7,1250.3,2718.4,1237.2,2718.4z"/>
		<path class="st5" d="M1232.6,2733.3h-107.7c-3.2,0-5.8-2.6-5.8-5.8v-15.7c0-3.2,2.6-5.8,5.8-5.8h107.7c3.2,0,5.8,2.6,5.8,5.8v15.7
			C1238.4,2730.7,1235.8,2733.3,1232.6,2733.3z"/>
	</g>
	<text transform="matrix(1 0 0 1 1147.5895 2653.2537)" class="st7 st8">28</text>
</g>
<g id="_x32_7">
	<g>
		<path class="st5" d="M1018.3,2739.3H848.8c-10.7,0-19.5-8.8-19.5-19.5v-100.5c0-10.7,8.8-19.5,19.5-19.5h169.5
			c10.7,0,19.5,8.8,19.5,19.5v100.5C1037.8,2730.5,1029,2739.3,1018.3,2739.3z"/>
		<path class="st6" d="M994.1,2718.4H873c-13.1,0-23.8-10.7-23.8-23.8v-115.3c0-13.1,10.7-23.8,23.8-23.8h121.1
			c13.1,0,23.8,10.7,23.8,23.8v115.3C1017.9,2707.7,1007.2,2718.4,994.1,2718.4z"/>
		<path class="st5" d="M989.5,2733.3H881.8c-3.2,0-5.8-2.6-5.8-5.8v-15.7c0-3.2,2.6-5.8,5.8-5.8h107.7c3.2,0,5.8,2.6,5.8,5.8v15.7
			C995.3,2730.7,992.7,2733.3,989.5,2733.3z"/>
	</g>
	<text transform="matrix(1 0 0 1 904.5042 2653.2537)" class="st7 st8">27</text>
</g>
<g id="_x32_6">
	<g>
		<path class="st5" d="M584.8,2739.3H415.2c-10.7,0-19.5-8.8-19.5-19.5v-100.5c0-10.7,8.8-19.5,19.5-19.5h169.5
			c10.7,0,19.5,8.8,19.5,19.5v100.5C604.2,2730.5,595.5,2739.3,584.8,2739.3z"/>
		<path class="st6" d="M560.6,2718.4H439.4c-13.1,0-23.8-10.7-23.8-23.8v-115.3c0-13.1,10.7-23.8,23.8-23.8h121.1
			c13.1,0,23.8,10.7,23.8,23.8v115.3C584.3,2707.7,573.6,2718.4,560.6,2718.4z"/>
		<path class="st5" d="M556,2733.3H448.2c-3.2,0-5.8-2.6-5.8-5.8v-15.7c0-3.2,2.6-5.8,5.8-5.8H556c3.2,0,5.8,2.6,5.8,5.8v15.7
			C561.7,2730.7,559.2,2733.3,556,2733.3z"/>
	</g>
	<text transform="matrix(1 0 0 1 484.7273 2653.2537)" class="st7 st8">26</text>
</g>
<g id="_x32_5">
	<g>
		<path class="st5" d="M359.4,2739.3H189.8c-10.7,0-19.5-8.8-19.5-19.5v-100.5c0-10.7,8.8-19.5,19.5-19.5h169.5
			c10.7,0,19.5,8.8,19.5,19.5v100.5C378.8,2730.5,370.1,2739.3,359.4,2739.3z"/>
		<path class="st6" d="M335.2,2718.4H214c-13.1,0-23.8-10.7-23.8-23.8v-115.3c0-13.1,10.7-23.8,23.8-23.8h121.1
			c13.1,0,23.8,10.7,23.8,23.8v115.3C358.9,2707.7,348.2,2718.4,335.2,2718.4z"/>
		<path class="st5" d="M330.6,2733.3H222.9c-3.2,0-5.8-2.6-5.8-5.8v-15.7c0-3.2,2.6-5.8,5.8-5.8h107.7c3.2,0,5.8,2.6,5.8,5.8v15.7
			C336.3,2730.7,333.8,2733.3,330.6,2733.3z"/>
	</g>
	<text transform="matrix(1 0 0 1 240.7424 2653.2537)" class="st7 st8">25</text>
</g>
<g id="_x32_4">
	<g>
		<path class="st5" d="M1261.4,2449.4h-169.5c-10.7,0-19.5-8.8-19.5-19.5v-100.5c0-10.7,8.8-19.5,19.5-19.5h169.5
			c10.7,0,19.5,8.8,19.5,19.5V2430C1280.9,2440.7,1272.1,2449.4,1261.4,2449.4z"/>
		<path class="st6" d="M1237.2,2428.6h-121.1c-13.1,0-23.8-10.7-23.8-23.8v-115.3c0-13.1,10.7-23.8,23.8-23.8h121.1
			c13.1,0,23.8,10.7,23.8,23.8v115.3C1261,2417.9,1250.3,2428.6,1237.2,2428.6z"/>
		<path class="st5" d="M1232.6,2443.4h-107.7c-3.2,0-5.8-2.6-5.8-5.8v-15.7c0-3.2,2.6-5.8,5.8-5.8h107.7c3.2,0,5.8,2.6,5.8,5.8v15.7
			C1238.4,2440.8,1235.8,2443.4,1232.6,2443.4z"/>
	</g>
	<text transform="matrix(1 0 0 1 1147.5895 2363.4194)" class="st7 st8">24</text>
</g>
<g id="_x32_3">
	<g>
		<path class="st5" d="M1018.3,2449.4H848.8c-10.7,0-19.5-8.8-19.5-19.5v-100.5c0-10.7,8.8-19.5,19.5-19.5h169.5
			c10.7,0,19.5,8.8,19.5,19.5V2430C1037.8,2440.7,1029,2449.4,1018.3,2449.4z"/>
		<path class="st6" d="M994.1,2428.6H873c-13.1,0-23.8-10.7-23.8-23.8v-115.3c0-13.1,10.7-23.8,23.8-23.8h121.1
			c13.1,0,23.8,10.7,23.8,23.8v115.3C1017.9,2417.9,1007.2,2428.6,994.1,2428.6z"/>
		<path class="st5" d="M989.5,2443.4H881.8c-3.2,0-5.8-2.6-5.8-5.8v-15.7c0-3.2,2.6-5.8,5.8-5.8h107.7c3.2,0,5.8,2.6,5.8,5.8v15.7
			C995.3,2440.8,992.7,2443.4,989.5,2443.4z"/>
	</g>
	<text transform="matrix(1 0 0 1 904.5042 2363.4194)" class="st7 st8">23</text>
</g>
<g id="_x32_2">
	<g>
		<path class="st5" d="M584.8,2449.4H415.2c-10.7,0-19.5-8.8-19.5-19.5v-100.5c0-10.7,8.8-19.5,19.5-19.5h169.5
			c10.7,0,19.5,8.8,19.5,19.5V2430C604.2,2440.7,595.5,2449.4,584.8,2449.4z"/>
		<path class="st6" d="M560.6,2428.6H439.4c-13.1,0-23.8-10.7-23.8-23.8v-115.3c0-13.1,10.7-23.8,23.8-23.8h121.1
			c13.1,0,23.8,10.7,23.8,23.8v115.3C584.3,2417.9,573.6,2428.6,560.6,2428.6z"/>
		<path class="st5" d="M556,2443.4H448.2c-3.2,0-5.8-2.6-5.8-5.8v-15.7c0-3.2,2.6-5.8,5.8-5.8H556c3.2,0,5.8,2.6,5.8,5.8v15.7
			C561.7,2440.8,559.2,2443.4,556,2443.4z"/>
	</g>
	<text transform="matrix(1 0 0 1 484.7273 2363.4194)" class="st7 st8">22</text>
</g>
<g id="_x32_1">
	<g>
		<path class="st5" d="M359.4,2449.4H189.8c-10.7,0-19.5-8.8-19.5-19.5v-100.5c0-10.7,8.8-19.5,19.5-19.5h169.5
			c10.7,0,19.5,8.8,19.5,19.5V2430C378.8,2440.7,370.1,2449.4,359.4,2449.4z"/>
		<path class="st6" d="M335.2,2428.6H214c-13.1,0-23.8-10.7-23.8-23.8v-115.3c0-13.1,10.7-23.8,23.8-23.8h121.1
			c13.1,0,23.8,10.7,23.8,23.8v115.3C358.9,2417.9,348.2,2428.6,335.2,2428.6z"/>
		<path class="st5" d="M330.6,2443.4H222.9c-3.2,0-5.8-2.6-5.8-5.8v-15.7c0-3.2,2.6-5.8,5.8-5.8h107.7c3.2,0,5.8,2.6,5.8,5.8v15.7
			C336.3,2440.8,333.8,2443.4,330.6,2443.4z"/>
	</g>
	<text transform="matrix(1 0 0 1 240.7424 2363.4194)" class="st7 st8">21</text>
</g>
<g id="_x32_0">
	<g>
		<path class="st5" d="M1261.4,2159.6h-169.5c-10.7,0-19.5-8.8-19.5-19.5v-100.5c0-10.7,8.8-19.5,19.5-19.5h169.5
			c10.7,0,19.5,8.8,19.5,19.5v100.5C1280.9,2150.8,1272.1,2159.6,1261.4,2159.6z"/>
		<path class="st6" d="M1237.2,2138.8h-121.1c-13.1,0-23.8-10.7-23.8-23.8v-115.3c0-13.1,10.7-23.8,23.8-23.8h121.1
			c13.1,0,23.8,10.7,23.8,23.8V2115C1261,2128.1,1250.3,2138.8,1237.2,2138.8z"/>
		<path class="st5" d="M1232.6,2153.6h-107.7c-3.2,0-5.8-2.6-5.8-5.8v-15.7c0-3.2,2.6-5.8,5.8-5.8h107.7c3.2,0,5.8,2.6,5.8,5.8v15.7
			C1238.4,2151,1235.8,2153.6,1232.6,2153.6z"/>
	</g>
	<text transform="matrix(1 0 0 1 1147.5895 2073.585)" class="st7 st8">20</text>
</g>
<g id="_x31_9">
	<g>
		<path class="st5" d="M1018.3,2159.6H848.8c-10.7,0-19.5-8.8-19.5-19.5v-100.5c0-10.7,8.8-19.5,19.5-19.5h169.5
			c10.7,0,19.5,8.8,19.5,19.5v100.5C1037.8,2150.8,1029,2159.6,1018.3,2159.6z"/>
		<path class="st6" d="M994.1,2138.8H873c-13.1,0-23.8-10.7-23.8-23.8v-115.3c0-13.1,10.7-23.8,23.8-23.8h121.1
			c13.1,0,23.8,10.7,23.8,23.8V2115C1017.9,2128.1,1007.2,2138.8,994.1,2138.8z"/>
		<path class="st5" d="M989.5,2153.6H881.8c-3.2,0-5.8-2.6-5.8-5.8v-15.7c0-3.2,2.6-5.8,5.8-5.8h107.7c3.2,0,5.8,2.6,5.8,5.8v15.7
			C995.3,2151,992.7,2153.6,989.5,2153.6z"/>
	</g>
	<text transform="matrix(1 0 0 1 904.5042 2073.585)" class="st7 st8">19</text>
</g>
<g id="_x31_8">
	<g>
		<path class="st5" d="M584.8,2159.6H415.2c-10.7,0-19.5-8.8-19.5-19.5v-100.5c0-10.7,8.8-19.5,19.5-19.5h169.5
			c10.7,0,19.5,8.8,19.5,19.5v100.5C604.2,2150.8,595.5,2159.6,584.8,2159.6z"/>
		<path class="st6" d="M560.6,2138.8H439.4c-13.1,0-23.8-10.7-23.8-23.8v-115.3c0-13.1,10.7-23.8,23.8-23.8h121.1
			c13.1,0,23.8,10.7,23.8,23.8V2115C584.3,2128.1,573.6,2138.8,560.6,2138.8z"/>
		<path class="st5" d="M556,2153.6H448.2c-3.2,0-5.8-2.6-5.8-5.8v-15.7c0-3.2,2.6-5.8,5.8-5.8H556c3.2,0,5.8,2.6,5.8,5.8v15.7
			C561.7,2151,559.2,2153.6,556,2153.6z"/>
	</g>
	<text transform="matrix(1 0 0 1 484.7273 2073.585)" class="st7 st8">18</text>
</g>
<g id="_x31_7">
	<g>
		<path class="st5" d="M359.4,2159.6H189.8c-10.7,0-19.5-8.8-19.5-19.5v-100.5c0-10.7,8.8-19.5,19.5-19.5h169.5
			c10.7,0,19.5,8.8,19.5,19.5v100.5C378.8,2150.8,370.1,2159.6,359.4,2159.6z"/>
		<path class="st6" d="M335.2,2138.8H214c-13.1,0-23.8-10.7-23.8-23.8v-115.3c0-13.1,10.7-23.8,23.8-23.8h121.1
			c13.1,0,23.8,10.7,23.8,23.8V2115C358.9,2128.1,348.2,2138.8,335.2,2138.8z"/>
		<path class="st5" d="M330.6,2153.6H222.9c-3.2,0-5.8-2.6-5.8-5.8v-15.7c0-3.2,2.6-5.8,5.8-5.8h107.7c3.2,0,5.8,2.6,5.8,5.8v15.7
			C336.3,2151,333.8,2153.6,330.6,2153.6z"/>
	</g>
	<text transform="matrix(1 0 0 1 240.7424 2073.585)" class="st7 st8">17</text>
</g>
<g id="_x31_6">
	<g>
		<path class="st5" d="M1261.4,1869.8h-169.5c-10.7,0-19.5-8.8-19.5-19.5v-100.5c0-10.7,8.8-19.5,19.5-19.5h169.5
			c10.7,0,19.5,8.8,19.5,19.5v100.5C1280.9,1861,1272.1,1869.8,1261.4,1869.8z"/>
		<path class="st6" d="M1237.2,1848.9h-121.1c-13.1,0-23.8-10.7-23.8-23.8v-115.3c0-13.1,10.7-23.8,23.8-23.8h121.1
			c13.1,0,23.8,10.7,23.8,23.8v115.3C1261,1838.2,1250.3,1848.9,1237.2,1848.9z"/>
		<path class="st5" d="M1232.6,1863.8h-107.7c-3.2,0-5.8-2.6-5.8-5.8v-15.7c0-3.2,2.6-5.8,5.8-5.8h107.7c3.2,0,5.8,2.6,5.8,5.8v15.7
			C1238.4,1861.2,1235.8,1863.8,1232.6,1863.8z"/>
	</g>
	<text transform="matrix(1 0 0 1 1147.5895 1783.7505)" class="st7 st8">16</text>
</g>
<g id="_x31_5">
	<g>
		<path class="st5" d="M1018.3,1869.8H848.8c-10.7,0-19.5-8.8-19.5-19.5v-100.5c0-10.7,8.8-19.5,19.5-19.5h169.5
			c10.7,0,19.5,8.8,19.5,19.5v100.5C1037.8,1861,1029,1869.8,1018.3,1869.8z"/>
		<path class="st6" d="M994.1,1848.9H873c-13.1,0-23.8-10.7-23.8-23.8v-115.3c0-13.1,10.7-23.8,23.8-23.8h121.1
			c13.1,0,23.8,10.7,23.8,23.8v115.3C1017.9,1838.2,1007.2,1848.9,994.1,1848.9z"/>
		<path class="st5" d="M989.5,1863.8H881.8c-3.2,0-5.8-2.6-5.8-5.8v-15.7c0-3.2,2.6-5.8,5.8-5.8h107.7c3.2,0,5.8,2.6,5.8,5.8v15.7
			C995.3,1861.2,992.7,1863.8,989.5,1863.8z"/>
	</g>
	<text transform="matrix(1 0 0 1 904.5042 1783.7505)" class="st7 st8">15</text>
</g>
<g id="_x31_4">
	<g>
		<path class="st5" d="M584.8,1869.8H415.2c-10.7,0-19.5-8.8-19.5-19.5v-100.5c0-10.7,8.8-19.5,19.5-19.5h169.5
			c10.7,0,19.5,8.8,19.5,19.5v100.5C604.2,1861,595.5,1869.8,584.8,1869.8z"/>
		<path class="st6" d="M560.6,1848.9H439.4c-13.1,0-23.8-10.7-23.8-23.8v-115.3c0-13.1,10.7-23.8,23.8-23.8h121.1
			c13.1,0,23.8,10.7,23.8,23.8v115.3C584.3,1838.2,573.6,1848.9,560.6,1848.9z"/>
		<path class="st5" d="M556,1863.8H448.2c-3.2,0-5.8-2.6-5.8-5.8v-15.7c0-3.2,2.6-5.8,5.8-5.8H556c3.2,0,5.8,2.6,5.8,5.8v15.7
			C561.7,1861.2,559.2,1863.8,556,1863.8z"/>
	</g>
	<text transform="matrix(1 0 0 1 484.7273 1783.7505)" class="st7 st8">14</text>
</g>
<g id="_x31_3">
	<g>
		<path class="st5" d="M359.4,1869.8H189.8c-10.7,0-19.5-8.8-19.5-19.5v-100.5c0-10.7,8.8-19.5,19.5-19.5h169.5
			c10.7,0,19.5,8.8,19.5,19.5v100.5C378.8,1861,370.1,1869.8,359.4,1869.8z"/>
		<path class="st6" d="M335.2,1848.9H214c-13.1,0-23.8-10.7-23.8-23.8v-115.3c0-13.1,10.7-23.8,23.8-23.8h121.1
			c13.1,0,23.8,10.7,23.8,23.8v115.3C358.9,1838.2,348.2,1848.9,335.2,1848.9z"/>
		<path class="st5" d="M330.6,1863.8H222.9c-3.2,0-5.8-2.6-5.8-5.8v-15.7c0-3.2,2.6-5.8,5.8-5.8h107.7c3.2,0,5.8,2.6,5.8,5.8v15.7
			C336.3,1861.2,333.8,1863.8,330.6,1863.8z"/>
	</g>
	<text transform="matrix(1 0 0 1 240.7424 1783.7505)" class="st7 st8">13</text>
</g>
<g id="_x31_2">
	<g>
		<path class="st5" d="M1267.1,1579.9h-169.5c-10.7,0-19.5-8.8-19.5-19.5V1460c0-10.7,8.8-19.5,19.5-19.5h169.5
			c10.7,0,19.5,8.8,19.5,19.5v100.5C1286.6,1571.2,1277.8,1579.9,1267.1,1579.9z"/>
		<path class="st6" d="M1242.9,1559.1h-121.1c-13.1,0-23.8-10.7-23.8-23.8V1420c0-13.1,10.7-23.8,23.8-23.8h121.1
			c13.1,0,23.8,10.7,23.8,23.8v115.3C1266.7,1548.4,1256,1559.1,1242.9,1559.1z"/>
		<path class="st5" d="M1238.3,1573.9h-107.7c-3.2,0-5.8-2.6-5.8-5.8v-15.7c0-3.2,2.6-5.8,5.8-5.8h107.7c3.2,0,5.8,2.6,5.8,5.8v15.7
			C1244.1,1571.3,1241.5,1573.9,1238.3,1573.9z"/>
	</g>
	<text transform="matrix(1 0 0 1 1153.2917 1493.9161)" class="st7 st8">12</text>
</g>
<g id="_x31_1">
	<g>
		<path class="st5" d="M1024,1579.9H854.5c-10.7,0-19.5-8.8-19.5-19.5V1460c0-10.7,8.8-19.5,19.5-19.5H1024
			c10.7,0,19.5,8.8,19.5,19.5v100.5C1043.5,1571.2,1034.8,1579.9,1024,1579.9z"/>
		<path class="st6" d="M999.8,1559.1H878.7c-13.1,0-23.8-10.7-23.8-23.8V1420c0-13.1,10.7-23.8,23.8-23.8h121.1
			c13.1,0,23.8,10.7,23.8,23.8v115.3C1023.6,1548.4,1012.9,1559.1,999.8,1559.1z"/>
		<path class="st5" d="M995.2,1573.9H887.5c-3.2,0-5.8-2.6-5.8-5.8v-15.7c0-3.2,2.6-5.8,5.8-5.8h107.7c3.2,0,5.8,2.6,5.8,5.8v15.7
			C1001,1571.3,998.4,1573.9,995.2,1573.9z"/>
	</g>
	<text transform="matrix(1 0 0 1 910.2064 1493.9161)" class="st7 st8">11</text>
</g>
<g id="_x31_0">
	<g>
		<path class="st5" d="M590.5,1579.9H420.9c-10.7,0-19.5-8.8-19.5-19.5V1460c0-10.7,8.8-19.5,19.5-19.5h169.5
			c10.7,0,19.5,8.8,19.5,19.5v100.5C609.9,1571.2,601.2,1579.9,590.5,1579.9z"/>
		<path class="st6" d="M566.3,1559.1H445.1c-13.1,0-23.8-10.7-23.8-23.8V1420c0-13.1,10.7-23.8,23.8-23.8h121.1
			c13.1,0,23.8,10.7,23.8,23.8v115.3C590,1548.4,579.3,1559.1,566.3,1559.1z"/>
		<path class="st5" d="M561.7,1573.9H454c-3.2,0-5.8-2.6-5.8-5.8v-15.7c0-3.2,2.6-5.8,5.8-5.8h107.7c3.2,0,5.8,2.6,5.8,5.8v15.7
			C567.4,1571.3,564.9,1573.9,561.7,1573.9z"/>
	</g>
	<text transform="matrix(1 0 0 1 490.4295 1493.9161)" class="st7 st8">10</text>
</g>
<g id="_x39_">
	<g>
		<path class="st5" d="M365.1,1579.9H195.5c-10.7,0-19.5-8.8-19.5-19.5V1460c0-10.7,8.8-19.5,19.5-19.5h169.5
			c10.7,0,19.5,8.8,19.5,19.5v100.5C384.5,1571.2,375.8,1579.9,365.1,1579.9z"/>
		<path class="st6" d="M340.9,1559.1H219.7c-13.1,0-23.8-10.7-23.8-23.8V1420c0-13.1,10.7-23.8,23.8-23.8h121.1
			c13.1,0,23.8,10.7,23.8,23.8v115.3C364.6,1548.4,353.9,1559.1,340.9,1559.1z"/>
		<path class="st5" d="M336.3,1573.9H228.6c-3.2,0-5.8-2.6-5.8-5.8v-15.7c0-3.2,2.6-5.8,5.8-5.8h107.7c3.2,0,5.8,2.6,5.8,5.8v15.7
			C342,1571.3,339.5,1573.9,336.3,1573.9z"/>
	</g>
	<text transform="matrix(1 0 0 1 246.4447 1493.9161)" class="st7 st8">9</text>
</g>
<g id="_x38_">
	<g>
		<path class="st5" d="M1266.9,1290.1h-169.5c-10.7,0-19.5-8.8-19.5-19.5v-100.5c0-10.7,8.8-19.5,19.5-19.5h169.5
			c10.7,0,19.5,8.8,19.5,19.5v100.5C1286.3,1281.3,1277.6,1290.1,1266.9,1290.1z"/>
		<path class="st6" d="M1242.7,1269.3h-121.1c-13.1,0-23.8-10.7-23.8-23.8v-115.3c0-13.1,10.7-23.8,23.8-23.8h121.1
			c13.1,0,23.8,10.7,23.8,23.8v115.3C1266.4,1258.6,1255.7,1269.3,1242.7,1269.3z"/>
		<path class="st5" d="M1238.1,1284.1h-107.7c-3.2,0-5.8-2.6-5.8-5.8v-15.7c0-3.2,2.6-5.8,5.8-5.8h107.7c3.2,0,5.8,2.6,5.8,5.8v15.7
			C1243.8,1281.5,1241.3,1284.1,1238.1,1284.1z"/>
	</g>
	<text transform="matrix(1 0 0 1 1153.0311 1204.0818)" class="st7 st8">8</text>
</g>
<g id="_x37_">
	<g>
		<path class="st5" d="M1023.8,1290.1H854.3c-10.7,0-19.5-8.8-19.5-19.5v-100.5c0-10.7,8.8-19.5,19.5-19.5h169.5
			c10.7,0,19.5,8.8,19.5,19.5v100.5C1043.3,1281.3,1034.5,1290.1,1023.8,1290.1z"/>
		<path class="st6" d="M999.6,1269.3H878.4c-13.1,0-23.8-10.7-23.8-23.8v-115.3c0-13.1,10.7-23.8,23.8-23.8h121.1
			c13.1,0,23.8,10.7,23.8,23.8v115.3C1023.3,1258.6,1012.6,1269.3,999.6,1269.3z"/>
		<path class="st5" d="M995,1284.1H887.3c-3.2,0-5.8-2.6-5.8-5.8v-15.7c0-3.2,2.6-5.8,5.8-5.8H995c3.2,0,5.8,2.6,5.8,5.8v15.7
			C1000.8,1281.5,998.2,1284.1,995,1284.1z"/>
	</g>
	<text transform="matrix(1 0 0 1 909.9457 1204.0818)" class="st7 st8">7</text>
</g>
<g id="_x36_">
	<g>
		<path class="st5" d="M1261.4,1000.3h-169.5c-10.7,0-19.5-8.8-19.5-19.5V880.3c0-10.7,8.8-19.5,19.5-19.5h169.5
			c10.7,0,19.5,8.8,19.5,19.5v100.5C1280.9,991.5,1272.1,1000.3,1261.4,1000.3z"/>
		<path class="st6" d="M1237.2,979.4h-121.1c-13.1,0-23.8-10.7-23.8-23.8V840.4c0-13.1,10.7-23.8,23.8-23.8h121.1
			c13.1,0,23.8,10.7,23.8,23.8v115.3C1261,968.7,1250.3,979.4,1237.2,979.4z"/>
		<path class="st5" d="M1232.6,994.3h-107.7c-3.2,0-5.8-2.6-5.8-5.8v-15.7c0-3.2,2.6-5.8,5.8-5.8h107.7c3.2,0,5.8,2.6,5.8,5.8v15.7
			C1238.4,991.7,1235.8,994.3,1232.6,994.3z"/>
	</g>
	<text transform="matrix(1 0 0 1 1147.5895 914.2474)" class="st7 st8">6</text>
</g>
<g id="_x35_">
	<g>
		<path class="st5" d="M1018.3,1000.3H848.8c-10.7,0-19.5-8.8-19.5-19.5V880.3c0-10.7,8.8-19.5,19.5-19.5h169.5
			c10.7,0,19.5,8.8,19.5,19.5v100.5C1037.8,991.5,1029,1000.3,1018.3,1000.3z"/>
		<path class="st6" d="M994.1,979.4H873c-13.1,0-23.8-10.7-23.8-23.8V840.4c0-13.1,10.7-23.8,23.8-23.8h121.1
			c13.1,0,23.8,10.7,23.8,23.8v115.3C1017.9,968.7,1007.2,979.4,994.1,979.4z"/>
		<path class="st5" d="M989.5,994.3H881.8c-3.2,0-5.8-2.6-5.8-5.8v-15.7c0-3.2,2.6-5.8,5.8-5.8h107.7c3.2,0,5.8,2.6,5.8,5.8v15.7
			C995.3,991.7,992.7,994.3,989.5,994.3z"/>
	</g>
	<text transform="matrix(1 0 0 1 904.5042 914.2474)" class="st7 st8">5</text>
</g>
<g id="_x34__17_">
	<g>
		<path class="st5" d="M584.8,1000.3H415.2c-10.7,0-19.5-8.8-19.5-19.5V880.3c0-10.7,8.8-19.5,19.5-19.5h169.5
			c10.7,0,19.5,8.8,19.5,19.5v100.5C604.2,991.5,595.5,1000.3,584.8,1000.3z"/>
		<path class="st6" d="M560.6,979.4H439.4c-13.1,0-23.8-10.7-23.8-23.8V840.4c0-13.1,10.7-23.8,23.8-23.8h121.1
			c13.1,0,23.8,10.7,23.8,23.8v115.3C584.3,968.7,573.6,979.4,560.6,979.4z"/>
		<path class="st5" d="M556,994.3H448.2c-3.2,0-5.8-2.6-5.8-5.8v-15.7c0-3.2,2.6-5.8,5.8-5.8H556c3.2,0,5.8,2.6,5.8,5.8v15.7
			C561.7,991.7,559.2,994.3,556,994.3z"/>
	</g>
	<text transform="matrix(1 0 0 1 484.7273 914.2474)" class="st7 st8">4</text>
</g>
<g id="_x33__7_">
	<g>
		<path class="st5" d="M359.4,1000.3H189.8c-10.7,0-19.5-8.8-19.5-19.5V880.3c0-10.7,8.8-19.5,19.5-19.5h169.5
			c10.7,0,19.5,8.8,19.5,19.5v100.5C378.8,991.5,370.1,1000.3,359.4,1000.3z"/>
		<path class="st6" d="M335.2,979.4H214c-13.1,0-23.8-10.7-23.8-23.8V840.4c0-13.1,10.7-23.8,23.8-23.8h121.1
			c13.1,0,23.8,10.7,23.8,23.8v115.3C358.9,968.7,348.2,979.4,335.2,979.4z"/>
		<path class="st5" d="M330.6,994.3H222.9c-3.2,0-5.8-2.6-5.8-5.8v-15.7c0-3.2,2.6-5.8,5.8-5.8h107.7c3.2,0,5.8,2.6,5.8,5.8v15.7
			C336.3,991.7,333.8,994.3,330.6,994.3z"/>
	</g>
	<text transform="matrix(1 0 0 1 240.7424 914.2474)" class="st7 st8">3</text>
</g>
<g id="_x32__7_">
	<g>
		<path class="st5" d="M593.2,650.1H423.7c-10.7,0-19.5-8.8-19.5-19.5V530.1c0-10.7,8.8-19.5,19.5-19.5h169.5
			c10.7,0,19.5,8.8,19.5,19.5v100.5C612.7,641.3,603.9,650.1,593.2,650.1z"/>
		<path class="st6" d="M569,629.2H447.9c-13.1,0-23.8-10.7-23.8-23.8V490.2c0-13.1,10.7-23.8,23.8-23.8H569
			c13.1,0,23.8,10.7,23.8,23.8v115.3C592.8,618.5,582.1,629.2,569,629.2z"/>
		<path class="st5" d="M564.4,644H456.7c-3.2,0-5.8-2.6-5.8-5.8v-15.7c0-3.2,2.6-5.8,5.8-5.8h107.7c3.2,0,5.8,2.6,5.8,5.8v15.7
			C570.2,641.5,567.6,644,564.4,644z"/>
	</g>
	<text transform="matrix(1 0 0 1 493.1849 564.0364)" class="st7 st8">2</text>
</g>
<g id="_x31_">
	<g>
		<path class="st5" d="M367.8,650.1H198.3c-10.7,0-19.5-8.8-19.5-19.5V530.1c0-10.7,8.8-19.5,19.5-19.5h169.5
			c10.7,0,19.5,8.8,19.5,19.5v100.5C387.3,641.3,378.5,650.1,367.8,650.1z"/>
		<path class="st6" d="M343.6,629.2H222.5c-13.1,0-23.8-10.7-23.8-23.8V490.2c0-13.1,10.7-23.8,23.8-23.8h121.1
			c13.1,0,23.8,10.7,23.8,23.8v115.3C367.4,618.5,356.7,629.2,343.6,629.2z"/>
		<path class="st5" d="M339,644H231.3c-3.2,0-5.8-2.6-5.8-5.8v-15.7c0-3.2,2.6-5.8,5.8-5.8H339c3.2,0,5.8,2.6,5.8,5.8v15.7
			C344.8,641.5,342.2,644,339,644z"/>
	</g>
	<text transform="matrix(1 0 0 1 249.2 564.0364)" class="st7 st8">1</text>
</g>
<g id="driver">
	<path class="st5" d="M1219.1,664.2h-184.8c-15.1,0-27.4-12.4-27.4-27.4V525.2c0-15.1,12.4-27.4,27.4-27.4h184.8
		c15.1,0,27.4,12.4,27.4,27.4v111.5C1246.5,651.8,1234.1,664.2,1219.1,664.2z"/>
	<path class="st9" d="M1190.1,639.3h-126.9c-18.4,0-33.5-15.1-33.5-33.5V478.5c0-18.4,15.1-33.5,33.5-33.5h126.9
		c18.4,0,33.5,15.1,33.5,33.5v127.3C1223.6,624.2,1208.5,639.3,1190.1,639.3z"/>
	<path class="st5" d="M1189.5,657h-120.8c-4.5,0-8.1-3.6-8.1-8.1v-16.3c0-4.5,3.6-8.1,8.1-8.1h120.8c4.5,0,8.1,3.6,8.1,8.1v16.3
		C1197.6,653.3,1194,657,1189.5,657z"/>
	<text transform="matrix(1 0 0 1 1108.2233 564.0364)" class="st10 st11">D</text>
</g>
</svg>
